<svg width="24" height="24" viewBox="0 0 24 24" fill="none" xmlns="http://www.w3.org/2000/svg">
<path d="M16.4995 9.58064C15.1795 6.81064 11.9195 5.48064 8.99953 6.61064C5.93953 7.79064 4.41953 11.2306 5.59953 14.2906C6.77953 17.3506 10.0695 18.8106 13.0795 17.7606" stroke="#6F5CFF" stroke-miterlimit="10"/>
<path d="M20.9595 9.61073C20.8595 9.23073 20.7395 8.86073 20.5995 8.49073C18.5795 3.26073 12.7095 0.670728 7.48951 2.68073C2.26951 4.69073 -0.33049 10.5707 1.67951 15.8007C3.69951 21.0207 9.56951 23.6207 14.7895 21.6007C15.2195 21.4307 15.6395 21.2407 16.0395 21.0207" stroke="#6F5CFF" stroke-miterlimit="10"/>
<path d="M18.2696 15.2705L21.2496 12.2905H11.0596L18.2696 19.5005V15.2705ZM18.2696 15.2705L22.2696 16.9305" stroke="#6F5CFF" stroke-width="0.96" stroke-linecap="square" stroke-linejoin="bevel"/>
</svg>
