<svg width="24" height="24" viewBox="0 0 24 24" fill="none" xmlns="http://www.w3.org/2000/svg">
<path fill-rule="evenodd" clip-rule="evenodd" d="M5.03906 11.9756V11.9707H6.03906V11.9756C6.03906 12.2517 5.8152 12.4756 5.53906 12.4756C5.26292 12.4756 5.03906 12.2517 5.03906 11.9756ZM18.6591 11.9907V11.9956C18.6591 12.2717 18.4352 12.4956 18.1591 12.4956C17.8829 12.4956 17.6591 12.2717 17.6591 11.9956V11.9907H18.6591ZM5.53906 13.4225C5.8152 13.4225 6.03906 13.6464 6.03906 13.9225V13.9322C6.03906 14.2084 5.8152 14.4322 5.53906 14.4322C5.26292 14.4322 5.03906 14.2084 5.03906 13.9322V13.9225C5.03906 13.6464 5.26292 13.4225 5.53906 13.4225ZM18.1591 13.4359C18.4352 13.4359 18.6591 13.6597 18.6591 13.9359V13.9456C18.6591 14.2217 18.4352 14.4456 18.1591 14.4456C17.8829 14.4456 17.6591 14.2217 17.6591 13.9456V13.9359C17.6591 13.6597 17.8829 13.4359 18.1591 13.4359ZM5.53906 15.3792C5.8152 15.3792 6.03906 15.603 6.03906 15.8792V15.8889C6.03906 16.165 5.8152 16.3889 5.53906 16.3889C5.26292 16.3889 5.03906 16.165 5.03906 15.8889V15.8792C5.03906 15.603 5.26292 15.3792 5.53906 15.3792ZM18.1591 15.3859C18.4352 15.3859 18.6591 15.6097 18.6591 15.8859V15.8956C18.6591 16.1717 18.4352 16.3956 18.1591 16.3956C17.8829 16.3956 17.6591 16.1717 17.6591 15.8956V15.8859C17.6591 15.6097 17.8829 15.3859 18.1591 15.3859ZM5.97978 17.5995C5.89543 17.4425 5.72971 17.3358 5.53906 17.3358C5.26292 17.3358 5.03906 17.5597 5.03906 17.8358V17.8407L5.28922 18.2738L5.29315 18.2761C5.53234 18.4141 5.83811 18.332 5.97609 18.0928C6.06718 17.9349 6.06238 17.748 5.97978 17.5995ZM18.1591 17.3359C18.4352 17.3359 18.6591 17.5597 18.6591 17.8359V17.8407L18.4089 18.2738L18.405 18.2761C18.1658 18.4141 17.86 18.332 17.722 18.0928C17.6308 17.9347 17.6358 17.7476 17.7186 17.599C17.8031 17.4423 17.9686 17.3359 18.1591 17.3359ZM6.67953 18.4986C6.81752 18.2594 7.12328 18.1774 7.36248 18.3153L7.37033 18.3199C7.60952 18.4578 7.69157 18.7636 7.55359 19.0028C7.41561 19.242 7.10984 19.3241 6.87065 19.1861L6.8628 19.1815C6.6236 19.0436 6.54155 18.7378 6.67953 18.4986ZM17.0186 18.4986C17.1566 18.7378 17.0745 19.0436 16.8353 19.1815L16.8275 19.1861C16.5883 19.3241 16.2825 19.242 16.1445 19.0028C16.0066 18.7636 16.0886 18.4578 16.3278 18.3199L16.3356 18.3153C16.5748 18.1774 16.8806 18.2594 17.0186 18.4986ZM8.25703 19.4086C8.39502 19.1694 8.70078 19.0874 8.93998 19.2253L8.94783 19.2299C9.18702 19.3678 9.26907 19.6736 9.13109 19.9128C8.99311 20.152 8.68734 20.2341 8.44815 20.0961L8.4403 20.0915C8.2011 19.9536 8.11905 19.6478 8.25703 19.4086ZM15.4411 19.4086C15.5791 19.6478 15.497 19.9536 15.2578 20.0915L15.25 20.0961C15.0108 20.2341 14.705 20.152 14.567 19.9128C14.4291 19.6736 14.5111 19.3678 14.7503 19.2299L14.7581 19.2253C14.9973 19.0874 15.3031 19.1694 15.4411 19.4086ZM9.83453 20.3186C9.97252 20.0794 10.2783 19.9974 10.5175 20.1353L10.5253 20.1399C10.7645 20.2778 10.8466 20.5836 10.7086 20.8228C10.5706 21.062 10.2648 21.1441 10.0256 21.0061L10.0178 21.0015C9.7786 20.8636 9.69655 20.5578 9.83453 20.3186ZM13.8636 20.3186C14.0016 20.5578 13.9195 20.8636 13.6803 21.0015L13.6725 21.0061C13.4333 21.1441 13.1275 21.062 12.9895 20.8228C12.8516 20.5836 12.9336 20.2778 13.1728 20.1399L13.1806 20.1353C13.4198 19.9974 13.7256 20.0794 13.8636 20.3186ZM11.8491 20.9784C11.675 20.9772 11.5052 21.067 11.412 21.2286C11.2741 21.4678 11.3561 21.7736 11.5953 21.9115L11.5992 21.9138H12.0989L12.1028 21.9115C12.342 21.7736 12.4241 21.4678 12.2861 21.2286C12.1929 21.067 12.0232 20.9772 11.8491 20.9784Z" fill="#4027FF"/>
<path d="M22.4375 9.33008V15.6601" stroke="#4027FF" stroke-linejoin="bevel"/>
<path d="M11.87 3L22.69 9.33L11.87 15.66L1 9.33L11.87 3Z" stroke="#4027FF" stroke-linejoin="bevel"/>
</svg>
