<svg width="24" height="24" viewBox="0 0 24 24" fill="none" xmlns="http://www.w3.org/2000/svg">
<path fill-rule="evenodd" clip-rule="evenodd" d="M5.03906 11.9748V11.97H6.03906V11.9748C6.03906 12.251 5.8152 12.4748 5.53906 12.4748C5.26292 12.4748 5.03906 12.251 5.03906 11.9748ZM18.6591 11.99V11.9948C18.6591 12.271 18.4352 12.4948 18.1591 12.4948C17.8829 12.4948 17.6591 12.271 17.6591 11.9948V11.99H18.6591ZM5.53906 13.4218C5.8152 13.4218 6.03906 13.6456 6.03906 13.9218V13.9315C6.03906 14.2076 5.8152 14.4315 5.53906 14.4315C5.26292 14.4315 5.03906 14.2076 5.03906 13.9315V13.9218C5.03906 13.6456 5.26292 13.4218 5.53906 13.4218ZM18.1591 13.4351C18.4352 13.4351 18.6591 13.659 18.6591 13.9351V13.9448C18.6591 14.221 18.4352 14.4448 18.1591 14.4448C17.8829 14.4448 17.6591 14.221 17.6591 13.9448V13.9351C17.6591 13.659 17.8829 13.4351 18.1591 13.4351ZM5.53906 15.3784C5.8152 15.3784 6.03906 15.6023 6.03906 15.8784V15.8882C6.03906 16.1643 5.8152 16.3882 5.53906 16.3882C5.26292 16.3882 5.03906 16.1643 5.03906 15.8882V15.8784C5.03906 15.6023 5.26292 15.3784 5.53906 15.3784ZM18.1591 15.3851C18.4352 15.3851 18.6591 15.609 18.6591 15.8851V15.8948C18.6591 16.171 18.4352 16.3948 18.1591 16.3948C17.8829 16.3948 17.6591 16.171 17.6591 15.8948V15.8851C17.6591 15.609 17.8829 15.3851 18.1591 15.3851ZM5.97978 17.5987C5.89543 17.4418 5.72971 17.3351 5.53906 17.3351C5.26292 17.3351 5.03906 17.559 5.03906 17.8351V17.84L5.28922 18.2731L5.29315 18.2753C5.53234 18.4133 5.83811 18.3313 5.97609 18.0921C6.06718 17.9342 6.06238 17.7472 5.97978 17.5987ZM18.1591 17.3351C18.4352 17.3351 18.6591 17.559 18.6591 17.8351V17.84L18.4089 18.2731L18.405 18.2753C18.1658 18.4133 17.86 18.3313 17.722 18.0921C17.6308 17.934 17.6358 17.7468 17.7186 17.5982C17.8031 17.4416 17.9686 17.3351 18.1591 17.3351ZM6.67953 18.4979C6.81752 18.2587 7.12328 18.1766 7.36248 18.3146L7.37033 18.3191C7.60952 18.4571 7.69157 18.7629 7.55359 19.0021C7.41561 19.2413 7.10984 19.3233 6.87065 19.1853L6.8628 19.1808C6.6236 19.0428 6.54155 18.7371 6.67953 18.4979ZM17.0186 18.4979C17.1566 18.7371 17.0745 19.0428 16.8353 19.1808L16.8275 19.1853C16.5883 19.3233 16.2825 19.2413 16.1445 19.0021C16.0066 18.7629 16.0886 18.4571 16.3278 18.3191L16.3356 18.3146C16.5748 18.1766 16.8806 18.2587 17.0186 18.4979ZM8.25703 19.4079C8.39502 19.1687 8.70078 19.0866 8.93998 19.2246L8.94783 19.2291C9.18702 19.3671 9.26907 19.6729 9.13109 19.9121C8.99311 20.1513 8.68734 20.2333 8.44815 20.0953L8.4403 20.0908C8.2011 19.9528 8.11905 19.6471 8.25703 19.4079ZM15.4411 19.4079C15.5791 19.6471 15.497 19.9528 15.2578 20.0908L15.25 20.0953C15.0108 20.2333 14.705 20.1513 14.567 19.9121C14.4291 19.6729 14.5111 19.3671 14.7503 19.2291L14.7581 19.2246C14.9973 19.0866 15.3031 19.1687 15.4411 19.4079ZM9.83453 20.3179C9.97252 20.0787 10.2783 19.9966 10.5175 20.1346L10.5253 20.1391C10.7645 20.2771 10.8466 20.5829 10.7086 20.8221C10.5706 21.0613 10.2648 21.1433 10.0256 21.0053L10.0178 21.0008C9.7786 20.8628 9.69655 20.5571 9.83453 20.3179ZM13.8636 20.3179C14.0016 20.5571 13.9195 20.8628 13.6803 21.0008L13.6725 21.0053C13.4333 21.1433 13.1275 21.0613 12.9895 20.8221C12.8516 20.5829 12.9336 20.2771 13.1728 20.1391L13.1806 20.1346C13.4198 19.9966 13.7256 20.0787 13.8636 20.3179ZM11.8491 20.9776C11.675 20.9764 11.5052 21.0663 11.412 21.2279C11.2741 21.4671 11.3561 21.7728 11.5953 21.9108L11.5992 21.9131H12.0989L12.1028 21.9108C12.342 21.7728 12.4241 21.4671 12.2861 21.2279C12.1929 21.0663 12.0232 20.9764 11.8491 20.9776Z" fill="#4027FF"/>
<path fill-rule="evenodd" clip-rule="evenodd" d="M21.9395 15.6601V9.33008H22.9395V15.6601H21.9395Z" fill="#4027FF"/>
<path fill-rule="evenodd" clip-rule="evenodd" d="M1.99325 9.32995L11.8691 15.081L21.6995 9.32995L11.8691 3.57889L1.99325 9.32995ZM0.748047 8.89787L11.618 2.56787L12.1221 2.56838L22.9421 8.89838V9.76152L12.1221 16.0915L11.618 16.092L0.748047 9.76203L0.748047 8.89787Z" fill="#4027FF"/>
</svg>
