<svg width="24" height="24" viewBox="0 0 24 24" fill="none" xmlns="http://www.w3.org/2000/svg">
<g clip-path="url(#clip0_519_7116)">
<path fill-rule="evenodd" clip-rule="evenodd" d="M12.531 8.69983C12.1902 8.68454 11.8452 8.74496 11.5798 8.86963C11.3046 8.99887 11.2273 9.13682 11.2144 9.19685C11.2077 9.22775 11.1999 9.31815 11.3777 9.44466C11.5604 9.57463 11.8551 9.66512 12.1996 9.68058C12.5404 9.69587 12.8855 9.63545 13.1509 9.51078C13.4261 9.38154 13.5033 9.24359 13.5163 9.18356C13.5229 9.15266 13.5307 9.06226 13.3529 8.93575C13.1703 8.80578 12.8756 8.71529 12.531 8.69983ZM12.5646 7.95058C13.0001 7.97012 13.4504 8.08463 13.7877 8.32466C14.1299 8.56815 14.3377 8.93275 14.2494 9.34185C14.1673 9.72182 13.8546 10.0089 13.4698 10.1896C13.0752 10.375 12.6052 10.4495 12.166 10.4298C11.7306 10.4103 11.2803 10.2958 10.9429 10.0558C10.6007 9.81226 10.3929 9.44766 10.4813 9.03856C10.5633 8.65859 10.8761 8.37154 11.2609 8.19078C11.6555 8.00545 12.1254 7.93087 12.5646 7.95058Z" fill="#4027FF"/>
<path fill-rule="evenodd" clip-rule="evenodd" d="M12.9541 6.77724C11.7473 6.72201 10.4939 6.92988 9.47751 7.40043C8.4535 7.87452 7.93702 8.49219 7.81783 9.04647C7.70489 9.57171 7.9238 10.1714 8.68465 10.7027C9.45377 11.2397 10.5778 11.5576 11.7896 11.613C12.9979 11.6683 14.2509 11.4603 15.2618 10.9901L15.2624 10.9898C16.2864 10.5158 16.8029 9.89808 16.9221 9.3438C17.035 8.81856 16.8161 8.21885 16.0553 7.6876C15.286 7.15049 14.1644 6.83264 12.9541 6.77724ZM12.9884 6.02803C14.2905 6.08763 15.5639 6.42978 16.4846 7.07267C17.4138 7.72142 17.8499 8.59671 17.6553 9.50147C17.467 10.3771 16.7136 11.1444 15.5778 11.6703C14.4388 12.2 13.0619 12.422 11.7553 12.3622C10.4522 12.3027 9.17616 11.9606 8.25528 11.3176C7.32614 10.6688 6.89004 9.79356 7.0846 8.8888C7.27291 8.01308 8.02643 7.24575 9.16242 6.71983C10.306 6.19039 11.6827 5.96826 12.9884 6.02803Z" fill="#4027FF"/>
<path fill-rule="evenodd" clip-rule="evenodd" d="M17.5143 9.09979C17.5144 9.09988 17.5145 9.09997 17.2898 9.40016C17.065 9.70036 17.0651 9.70043 17.0652 9.7005L17.0632 9.69899L17.0511 9.69031C17.0398 9.68223 17.0219 9.66972 16.998 9.6536C16.9502 9.62134 16.8784 9.57481 16.7864 9.52058C16.6017 9.41175 16.339 9.27394 16.0275 9.15778C15.3971 8.92269 14.6155 8.79343 13.8756 9.10566L13.584 8.41466C14.574 7.9969 15.5725 8.18764 16.2896 8.45505C16.6518 8.59014 16.9547 8.7492 17.1672 8.87443C17.2738 8.93724 17.3585 8.99204 17.4175 9.03184C17.447 9.05176 17.4702 9.06797 17.4865 9.0796L17.5058 9.09352L17.5115 9.09772L17.5133 9.09909L17.5143 9.09979Z" fill="#4027FF"/>
<path fill-rule="evenodd" clip-rule="evenodd" d="M11.97 12.3338C11.9699 12.3339 11.9698 12.3339 11.8199 11.9902C11.6701 11.6464 11.67 11.6465 11.6699 11.6465L11.6744 11.6445L11.6921 11.6365C11.7081 11.6292 11.7321 11.6181 11.7627 11.6034C11.8241 11.574 11.9112 11.5305 12.0124 11.4755C12.2174 11.3641 12.4683 11.2114 12.6783 11.0376C12.9 10.854 13.0207 10.6917 13.0523 10.5732C13.0649 10.5257 13.0626 10.4886 13.0471 10.4501C13.0298 10.4069 12.985 10.336 12.8695 10.246L13.3303 9.6543C13.5199 9.80187 13.6638 9.97287 13.7433 10.171C13.8247 10.374 13.8271 10.578 13.777 10.7662C13.6829 11.1193 13.4074 11.4076 13.1566 11.6153C12.894 11.8327 12.5962 12.0119 12.3706 12.1345C12.2564 12.1965 12.1578 12.2457 12.0872 12.2796C12.0519 12.2965 12.0234 12.3097 12.0033 12.3189L11.9797 12.3295L11.973 12.3325L11.9709 12.3334L11.97 12.3338Z" fill="#4027FF"/>
<path fill-rule="evenodd" clip-rule="evenodd" d="M12.8697 6.06641C12.8698 6.06636 12.8699 6.06632 13.0198 6.41007C13.1696 6.75382 13.1697 6.75379 13.1698 6.75376L13.1653 6.75575L13.1476 6.76373C13.1316 6.77102 13.1076 6.78216 13.077 6.79685C13.0156 6.82629 12.9285 6.86971 12.8273 6.9247C12.6223 7.03614 12.3714 7.18882 12.1614 7.36265C11.9397 7.54624 11.819 7.70859 11.7874 7.82707C11.7748 7.87458 11.7771 7.91164 11.7926 7.95012C11.8099 7.99339 11.8547 8.06427 11.9702 8.15419L11.5094 8.74595C11.3198 8.59837 11.1759 8.42738 11.0964 8.2292C11.015 8.02623 11.0126 7.82228 11.0627 7.634C11.1568 7.28093 11.4323 6.99265 11.6831 6.78499C11.9457 6.56757 12.2435 6.38837 12.4691 6.26575C12.5833 6.20371 12.6819 6.15456 12.7525 6.12067C12.7878 6.10371 12.8163 6.0905 12.8364 6.08135L12.86 6.0707L12.8667 6.06771L12.8688 6.06682L12.8697 6.06641Z" fill="#4027FF"/>
<path fill-rule="evenodd" clip-rule="evenodd" d="M7.22461 9.30048C7.2245 9.30039 7.22439 9.3003 7.44912 9.00011C7.67386 8.69991 7.67376 8.69984 7.67367 8.69977C7.67361 8.69973 7.67352 8.69965 7.67367 8.69977L7.67574 8.70128L7.68778 8.70996C7.69911 8.71804 7.71696 8.73055 7.74085 8.74667C7.78868 8.77893 7.86046 8.82546 7.95248 8.87969C8.13715 8.98852 8.39991 9.12633 8.7114 9.24249C9.34182 9.47758 10.1234 9.60684 10.8633 9.29461L11.1549 9.98561C10.1649 10.4034 9.16643 10.2126 8.44935 9.94522C8.08709 9.81013 7.78422 9.65107 7.5717 9.52584C7.46513 9.46303 7.38043 9.40823 7.32142 9.36843C7.29189 9.34851 7.26873 9.3323 7.25242 9.32067L7.23311 9.30675L7.22741 9.30255L7.22556 9.30118L7.22461 9.30048Z" fill="#4027FF"/>
<path fill-rule="evenodd" clip-rule="evenodd" d="M15.842 11.4193C15.842 11.4196 15.8419 11.4198 15.4804 11.32C15.1189 11.2203 15.1189 11.2205 15.1188 11.2207L15.1187 11.2211L15.1186 11.2216L15.1184 11.2223C15.1183 11.2226 15.1183 11.2225 15.1185 11.222L15.1203 11.2146C15.1221 11.2068 15.1251 11.1935 15.1285 11.1754C15.1353 11.139 15.1438 11.0845 15.1488 11.0178C15.1589 10.8819 15.1534 10.7098 15.101 10.5412C15.0502 10.3776 14.9556 10.2163 14.7795 10.085C14.6009 9.95182 14.3122 9.82996 13.8418 9.79395L13.899 9.04614C14.4737 9.09013 14.9087 9.24577 15.2279 9.48381C15.5496 9.72375 15.7269 10.0275 15.8173 10.3189C15.9062 10.6053 15.9113 10.8782 15.8967 11.0735C15.8894 11.1725 15.8767 11.2552 15.8655 11.3146C15.8598 11.3443 15.8545 11.3685 15.8503 11.3863L15.845 11.4081L15.8431 11.4152L15.8424 11.4178L15.8422 11.4189L15.842 11.4193Z" fill="#4027FF"/>
<path fill-rule="evenodd" clip-rule="evenodd" d="M8.50587 11.4044C8.50578 11.4044 8.50569 11.4044 8.53015 11.0302C8.55461 10.656 8.55455 10.656 8.5545 10.656L8.55565 10.6561L8.56102 10.6564L8.58415 10.6577C8.60491 10.6588 8.63609 10.6603 8.6763 10.6618C8.75677 10.6648 8.87307 10.6678 9.0141 10.6679C9.2973 10.668 9.67482 10.6562 10.0598 10.6092C10.4489 10.5618 10.8238 10.481 11.1128 10.3537C11.4079 10.2238 11.5475 10.0761 11.5912 9.93164L12.3091 10.1488C12.1728 10.5993 11.7949 10.8729 11.415 11.0402C11.029 11.2101 10.5714 11.3024 10.1505 11.3537C9.72548 11.4055 9.3155 11.418 9.0137 11.4179C8.86222 11.4178 8.73665 11.4145 8.64837 11.4112C8.6042 11.4096 8.56929 11.4079 8.54506 11.4067L8.51686 11.4051L8.50908 11.4046L8.50587 11.4044Z" fill="#4027FF"/>
<path fill-rule="evenodd" clip-rule="evenodd" d="M16.3442 7.0259C16.3443 7.0259 16.3444 7.02591 16.32 7.40011C16.2955 7.77431 16.2956 7.77431 16.2956 7.77432L16.2944 7.77424L16.2891 7.77392L16.266 7.77264C16.2452 7.77156 16.214 7.77008 16.1738 7.76858C16.0933 7.76558 15.977 7.76253 15.836 7.76245C15.5528 7.7623 15.1753 7.77417 14.7903 7.8211C14.4012 7.86855 14.0263 7.94934 13.7373 8.0766C13.4422 8.20651 13.3026 8.35421 13.2589 8.49869L12.541 8.28152C12.6773 7.83101 13.0552 7.55745 13.4351 7.39018C13.8211 7.22025 14.2787 7.12792 14.6996 7.07661C15.1246 7.0248 15.5346 7.01229 15.8364 7.01245C15.9879 7.01253 16.1134 7.01581 16.2017 7.0191C16.2459 7.02075 16.2808 7.0224 16.305 7.02366L16.3332 7.02522L16.341 7.02569L16.3442 7.0259Z" fill="#4027FF"/>
<path fill-rule="evenodd" clip-rule="evenodd" d="M8.94766 6.98073C8.94772 6.98052 8.94778 6.98031 9.30927 7.08003C9.67077 7.17976 9.67082 7.17956 9.67088 7.17937L9.67097 7.17903L9.67113 7.17845L9.67132 7.17774C9.67139 7.17746 9.67136 7.17758 9.67124 7.17807L9.66944 7.18544C9.6676 7.19324 9.66464 7.20658 9.66122 7.22469C9.65435 7.26109 9.64586 7.31561 9.64089 7.38228C9.63077 7.51815 9.63632 7.69025 9.68866 7.85885C9.73946 8.02249 9.8341 8.18373 10.0102 8.31505C10.1888 8.44826 10.4775 8.57012 10.9479 8.60613L10.8906 9.35394C10.316 9.30995 9.881 9.15431 9.56181 8.91627C9.24008 8.67633 9.06284 8.37258 8.97238 8.08121C8.88348 7.79482 8.87841 7.52192 8.89297 7.32654C8.90034 7.22758 8.91303 7.14491 8.92424 7.08553C8.92987 7.05575 8.93517 7.03155 8.93935 7.01379L8.94469 6.99199L8.94655 6.98485L8.94725 6.98225L8.94753 6.9812L8.94766 6.98073Z" fill="#4027FF"/>
<path fill-rule="evenodd" clip-rule="evenodd" d="M0.567068 12.0199C0.705138 11.7807 1.01093 11.6988 1.25008 11.8368L1.29421 11.8623C1.53335 12.0004 1.61529 12.3062 1.47723 12.5453C1.33916 12.7845 1.03336 12.8664 0.794214 12.7284L0.750087 12.7029C0.51094 12.5648 0.429 12.259 0.567068 12.0199ZM23.6731 12.0199C23.8112 12.259 23.7292 12.5648 23.4901 12.7029L23.446 12.7283C23.2068 12.8664 22.901 12.7845 22.7629 12.5453C22.6249 12.3062 22.7068 12.0004 22.946 11.8623L22.9901 11.8368C23.2292 11.6988 23.535 11.7807 23.6731 12.0199ZM21.8639 13.0644C22.002 13.3035 21.92 13.6093 21.6809 13.7474L21.5926 13.7984C21.3535 13.9364 21.0477 13.8545 20.9096 13.6153C20.7715 13.3762 20.8535 13.0704 21.0926 12.9323L21.1809 12.8814C21.42 12.7433 21.7258 12.8252 21.8639 13.0644ZM2.37627 13.0644C2.51434 12.8252 2.82014 12.7433 3.05929 12.8814L3.14754 12.9323C3.38669 13.0704 3.46863 13.3762 3.33056 13.6153C3.19249 13.8545 2.8867 13.9364 2.64755 13.7984L2.55929 13.7474C2.32015 13.6093 2.23821 13.3035 2.37627 13.0644ZM20.0106 14.1344C20.1486 14.3735 20.0667 14.6793 19.8275 14.8174L19.7393 14.8683C19.5001 15.0064 19.1943 14.9245 19.0563 14.6853C18.9182 14.4462 19.0001 14.1404 19.2393 14.0023L19.3275 13.9514C19.5667 13.8133 19.8725 13.8952 20.0106 14.1344ZM4.22961 14.1344C4.36768 13.8952 4.67347 13.8133 4.91262 13.9514L5.00087 14.0023C5.24002 14.1404 5.32196 14.4462 5.18389 14.6853C5.04582 14.9245 4.74003 15.0064 4.50088 14.8684L4.41263 14.8174C4.17348 14.6793 4.09154 14.3735 4.22961 14.1344ZM18.1572 15.2044C18.2953 15.4435 18.2134 15.7493 17.9742 15.8874L17.886 15.9384C17.6468 16.0764 17.341 15.9945 17.2029 15.7553C17.0649 15.5162 17.1468 15.2104 17.386 15.0723L17.4742 15.0214C17.7134 14.8833 18.0192 14.9652 18.1572 15.2044ZM6.08294 15.2044C6.22101 14.9652 6.5268 14.8833 6.76595 15.0214L6.85421 15.0723C7.09335 15.2104 7.17529 15.5162 7.03723 15.7553C6.89916 15.9945 6.59336 16.0764 6.35421 15.9384L6.26596 15.8874C6.02681 15.7493 5.94487 15.4435 6.08294 15.2044ZM16.3039 16.2744C16.442 16.5135 16.36 16.8193 16.1209 16.9574L16.0326 17.0083C15.7935 17.1464 15.4877 17.0645 15.3496 16.8253C15.2115 16.5862 15.2935 16.2804 15.5326 16.1423L15.6209 16.0914C15.86 15.9533 16.1658 16.0352 16.3039 16.2744ZM7.93628 16.2744C8.07434 16.0352 8.38014 15.9533 8.61929 16.0914L8.70754 16.1423C8.94669 16.2804 9.02863 16.5862 8.89056 16.8253C8.75249 17.0645 8.4467 17.1464 8.20755 17.0084L8.11929 16.9574C7.88015 16.8193 7.79821 16.5135 7.93628 16.2744ZM9.78961 17.3444C9.92768 17.1052 10.2335 17.0233 10.4726 17.1614L10.5609 17.2123C10.8 17.3504 10.882 17.6562 10.7439 17.8953C10.6058 18.1345 10.3 18.2164 10.0609 18.0784L9.97263 18.0274C9.73348 17.8893 9.65154 17.5835 9.78961 17.3444ZM14.4506 17.3444C14.5886 17.5835 14.5067 17.8893 14.2675 18.0274L14.1793 18.0784C13.9401 18.2164 13.6343 18.1345 13.4963 17.8953C13.3582 17.6562 13.4401 17.3504 13.6793 17.2123L13.7675 17.1614C14.0067 17.0233 14.3125 17.1052 14.4506 17.3444ZM12.1201 18.1662C11.9324 18.1497 11.7433 18.2405 11.6429 18.4144C11.5049 18.6535 11.5868 18.9593 11.826 19.0974L11.8701 19.1229C12.0248 19.2122 12.2154 19.2122 12.3701 19.1229L12.4142 19.0974C12.6534 18.9593 12.7353 18.6535 12.5972 18.4144C12.4968 18.2405 12.3077 18.1497 12.1201 18.1662Z" fill="#4027FF"/>
<path fill-rule="evenodd" clip-rule="evenodd" d="M12.1206 2.42285L24.2412 9.40964L12.1206 16.4073L0 9.40964L12.1206 2.42285ZM2.0012 9.41031L12.1206 15.2526L22.24 9.41031L12.1206 3.5771L2.0012 9.41031Z" fill="#4027FF"/>
<path fill-rule="evenodd" clip-rule="evenodd" d="M12.12 20.9727L1.24999 14.697L0.75 15.5631L12.12 22.1274L23.49 15.5631L22.99 14.697L12.12 20.9727Z" fill="#4027FF"/>
</g>
<defs>
<clipPath id="clip0_519_7116">
<rect width="24" height="24" fill="white"/>
</clipPath>
</defs>
</svg>
