<svg width="24" height="24" viewBox="0 0 24 24" fill="none" xmlns="http://www.w3.org/2000/svg">
<g clip-path="url(#clip0_519_7116)">
<path d="M13.3099 9.85021C12.6499 10.1602 11.6799 10.1202 11.1599 9.75021C10.6399 9.38021 10.7599 8.84021 11.4199 8.53021C12.0799 8.22021 13.0499 8.26021 13.5699 8.63021C14.0899 9.00021 13.9699 9.54021 13.3099 9.85021Z" stroke="#4027FF" stroke-width="0.75" stroke-miterlimit="10"/>
<path d="M15.4195 11.3301C13.2695 12.3301 10.1595 12.1901 8.46951 11.0101C6.77951 9.83014 7.15951 8.06014 9.31951 7.06014C11.4795 6.06014 14.5795 6.20014 16.2695 7.38014C17.9595 8.56014 17.5795 10.3301 15.4195 11.3301Z" stroke="#4027FF" stroke-width="0.75" stroke-miterlimit="10"/>
<path d="M17.2905 9.4001C17.2905 9.4001 15.4605 8.0301 13.7305 8.7601" stroke="#4027FF" stroke-width="0.75" stroke-miterlimit="10"/>
<path d="M11.8203 11.9902C11.8203 11.9902 14.3203 10.9002 13.1003 9.9502" stroke="#4027FF" stroke-width="0.75" stroke-miterlimit="10"/>
<path d="M13.0198 6.41016C13.0198 6.41016 10.5198 7.50016 11.7398 8.45016" stroke="#4027FF" stroke-width="0.75" stroke-miterlimit="10"/>
<path d="M7.44922 9.00024C7.44922 9.00024 9.27922 10.3702 11.0092 9.64024" stroke="#4027FF" stroke-width="0.75" stroke-miterlimit="10"/>
<path d="M15.4791 11.3202C15.4791 11.3202 15.9591 9.58017 13.8691 9.42017" stroke="#4027FF" stroke-width="0.75" stroke-miterlimit="10"/>
<path d="M8.5293 11.03C8.5293 11.03 11.5893 11.23 11.9493 10.04" stroke="#4027FF" stroke-width="0.75" stroke-miterlimit="10"/>
<path d="M16.3204 7.40011C16.3204 7.40011 13.2604 7.20011 12.9004 8.39011" stroke="#4027FF" stroke-width="0.75" stroke-miterlimit="10"/>
<path d="M9.30927 7.08008C9.30927 7.08008 8.82927 8.82008 10.9193 8.98008" stroke="#4027FF" stroke-width="0.75" stroke-miterlimit="10"/>
<path d="M23.24 12.27L12.12 18.69L1 12.27" stroke="#4027FF" stroke-miterlimit="10" stroke-linecap="round" stroke-linejoin="round" stroke-dasharray="0.1 2"/>
<path d="M12.12 15.83L1 9.41L12.12 3L23.24 9.41L12.12 15.83Z" stroke="#4027FF" stroke-miterlimit="10"/>
<path d="M23.24 15.1299L12.12 21.5499L1 15.1299" stroke="#4027FF" stroke-miterlimit="10"/>
</g>
<defs>
<clipPath id="clip0_519_7116">
<rect width="24" height="24" fill="white"/>
</clipPath>
</defs>
</svg>
