<svg width="24" height="24" viewBox="0 0 24 24" fill="none" xmlns="http://www.w3.org/2000/svg">
<path d="M22.3951 18.2582C22.2604 18.2582 22.1257 18.1961 22.0324 18.1028C21.9288 18.0095 21.877 17.8748 21.877 17.7401C21.877 17.595 21.9288 17.4603 22.0324 17.367C22.1775 17.2219 22.4055 17.1804 22.592 17.253C22.6542 17.2841 22.7164 17.3255 22.7682 17.367C22.8097 17.4188 22.8511 17.4706 22.8718 17.5328C22.9029 17.6053 22.9133 17.6675 22.9133 17.7401C22.9133 17.8748 22.8615 17.9991 22.7682 18.1028C22.6646 18.1961 22.5298 18.2582 22.3951 18.2582Z" fill="#825DFF"/>
<path d="M22.4049 16.3414C22.1147 16.3414 21.8867 16.1134 21.8867 15.8336C21.8867 15.533 22.1147 15.305 22.4049 15.305C22.6951 15.305 22.9231 15.533 22.9231 15.8232C22.9231 16.1134 22.6951 16.3414 22.4049 16.3414ZM22.4049 14.4345C22.1147 14.4345 21.8867 14.2065 21.8867 13.9267C21.8867 13.6262 22.1147 13.3982 22.4049 13.3982C22.6951 13.3982 22.9231 13.6262 22.9231 13.9163C22.9231 14.2065 22.6951 14.4345 22.4049 14.4345ZM22.4049 12.5173C22.1147 12.5173 21.8867 12.2893 21.8867 12.0095C21.8867 11.7089 22.1147 11.4809 22.4049 11.4809C22.6951 11.4809 22.9231 11.7089 22.9231 11.9991C22.9231 12.2893 22.6951 12.5173 22.4049 12.5173ZM22.4049 10.6001C22.1147 10.6001 21.8867 10.3721 21.8867 10.0922C21.8867 9.79171 22.1147 9.56371 22.4049 9.56371C22.6951 9.56371 22.9231 9.79171 22.9231 10.0819C22.9231 10.3721 22.6951 10.6001 22.4049 10.6001ZM22.4049 8.69319C22.1147 8.69319 21.8867 8.46519 21.8867 8.17502C21.8867 7.87448 22.1147 7.64648 22.4049 7.64648C22.6951 7.64648 22.9231 7.87448 22.9231 8.16465C22.9231 8.45483 22.6951 8.69319 22.4049 8.69319Z" fill="#825DFF"/>
<path d="M22.3951 6.77591C22.2604 6.77591 22.1257 6.72409 22.0324 6.62046C21.9806 6.579 21.9391 6.51682 21.9184 6.45464C21.8873 6.39246 21.877 6.33028 21.877 6.25774C21.877 6.12301 21.9288 5.98829 22.0324 5.89502C22.1775 5.74993 22.4055 5.69812 22.592 5.78102C22.6542 5.80175 22.7164 5.8432 22.7578 5.89502C22.8615 5.98829 22.9133 6.12301 22.9133 6.25774C22.9133 6.33028 22.9029 6.39246 22.8718 6.45464C22.8511 6.51682 22.8097 6.579 22.7578 6.62046C22.7164 6.67228 22.6542 6.71373 22.592 6.73446C22.5298 6.76555 22.4677 6.77591 22.3951 6.77591Z" fill="#825DFF"/>
<path d="M20.7473 5.82206C20.654 5.82206 20.5608 5.80134 20.4779 5.73916C20.2395 5.5837 20.167 5.26244 20.312 5.01372C20.4675 4.77536 20.7888 4.70281 21.0271 4.8479C21.2655 5.00335 21.3484 5.32462 21.1929 5.56298C21.0893 5.71843 20.9235 5.8117 20.7577 5.8117L20.7473 5.82206ZM19.0892 4.86863C18.9959 4.86863 18.913 4.8479 18.8301 4.79609C18.5813 4.64063 18.5088 4.31937 18.6539 4.08101C18.799 3.83229 19.1202 3.74938 19.369 3.90483C19.6177 4.04992 19.7006 4.37119 19.5555 4.61991C19.4622 4.78572 19.2861 4.87899 19.1099 4.87899L19.0892 4.86863ZM17.431 3.90483C17.3481 3.90483 17.2652 3.88411 17.1927 3.84265C16.9439 3.70793 16.8403 3.38666 16.975 3.13794C17.1097 2.87886 17.4206 2.78558 17.6797 2.92031C17.9388 3.05503 18.0321 3.36594 17.8974 3.62502C17.8041 3.8012 17.6279 3.90483 17.4414 3.90483H17.431ZM15.7729 2.9514C15.6796 2.9514 15.5863 2.93067 15.5034 2.86849C15.2651 2.71304 15.1925 2.39178 15.3376 2.14305C15.4931 1.9047 15.8143 1.83215 16.0527 1.97724C16.291 2.13269 16.3739 2.45396 16.2185 2.69231C16.1149 2.84777 15.949 2.94104 15.7832 2.94104L15.7729 2.9514ZM14.1251 1.99797C14.0318 1.99797 13.9385 1.97724 13.8556 1.91506C13.6173 1.75961 13.5447 1.43834 13.6898 1.18962C13.8453 0.951262 14.1665 0.878718 14.4049 1.02381C14.6433 1.17926 14.7262 1.50052 14.5707 1.73888C14.4671 1.89433 14.3013 1.9876 14.1354 1.9876L14.1251 1.99797Z" fill="#825DFF"/>
<path d="M12.4557 1.03445C12.3209 1.03445 12.1862 0.982637 12.0826 0.889367C11.9893 0.785732 11.9375 0.651008 11.9375 0.516284C11.9375 0.38156 11.9893 0.246835 12.0826 0.153565C12.238 0.00847712 12.466 -0.0433399 12.6526 0.0395673C12.7148 0.0602941 12.7666 0.101748 12.8184 0.153565C12.9117 0.246835 12.9738 0.38156 12.9738 0.516284C12.9738 0.651008 12.9117 0.785732 12.8184 0.889367C12.7666 0.93082 12.7148 0.972274 12.6526 0.993001C12.5904 1.02409 12.5179 1.03445 12.4557 1.03445Z" fill="#825DFF"/>
<path d="M4.17709 5.81207C4.00092 5.81207 3.8351 5.72916 3.74183 5.57371C3.58638 5.33535 3.65892 5.01409 3.90765 4.85863C4.146 4.70318 4.47763 4.77573 4.62272 5.01409C4.77817 5.25244 4.70563 5.57371 4.46727 5.72916C4.38436 5.79134 4.28073 5.81207 4.18746 5.81207H4.17709ZM5.83524 4.85863C5.65906 4.85863 5.49325 4.77573 5.39998 4.62028C5.24452 4.38192 5.31707 4.06065 5.56579 3.9052C5.80415 3.74975 6.13578 3.82229 6.28087 4.06065C6.43632 4.29901 6.36377 4.62028 6.12541 4.77573C6.04251 4.83791 5.93887 4.85863 5.8456 4.85863H5.83524ZM7.49338 3.9052C7.30684 3.9052 7.13066 3.80157 7.03739 3.62539C6.90267 3.37667 7.0063 3.0554 7.25503 2.93104C7.50375 2.79632 7.82501 2.88959 7.95974 3.14867C8.09446 3.39739 8.00119 3.7083 7.74211 3.84302C7.66956 3.88447 7.58665 3.9052 7.50375 3.9052H7.49338ZM9.15153 2.9414C8.97535 2.9414 8.79917 2.84813 8.7059 2.69268C8.56081 2.44396 8.63336 2.13306 8.88208 1.97761C9.1308 1.83252 9.45207 1.90506 9.59715 2.15379C9.74224 2.40251 9.6697 2.71341 9.42098 2.8585C9.33807 2.91031 9.2448 2.9414 9.15153 2.9414ZM10.7993 1.98797C10.6231 1.98797 10.4573 1.90506 10.364 1.74961C10.2086 1.51125 10.2811 1.18999 10.5299 1.03454C10.7786 0.879087 11.0998 0.951631 11.2449 1.18999C11.4004 1.42835 11.3278 1.74961 11.0895 1.90506C11.0066 1.96724 10.9029 1.98797 10.8097 1.98797H10.7993Z" fill="#825DFF"/>
<path d="M2.51817 6.77613C2.37308 6.77613 2.24872 6.72431 2.14509 6.62068C2.09327 6.57922 2.06218 6.51704 2.03109 6.45486C2.01036 6.39268 2 6.3305 2 6.25796C2 6.12323 2.05182 5.98851 2.14509 5.89524C2.34199 5.69833 2.68398 5.69833 2.88089 5.89524C2.97416 5.98851 3.03634 6.12323 3.03634 6.25796C3.03634 6.3305 3.01561 6.39268 2.99489 6.45486C2.9638 6.51704 2.93271 6.57922 2.88089 6.62068C2.77726 6.72431 2.65289 6.77613 2.51817 6.77613Z" fill="#825DFF"/>
<path d="M2.51817 16.3414C2.22799 16.3414 2 16.1134 2 15.8232C2 15.533 2.22799 15.2947 2.51817 15.2947C2.80835 15.2947 3.03634 15.5227 3.03634 15.8128C3.03634 16.1134 2.80835 16.3414 2.51817 16.3414ZM2.51817 14.4242C2.22799 14.4242 2 14.1962 2 13.906C2 13.6158 2.22799 13.3878 2.51817 13.3878C2.80835 13.3878 3.03634 13.6158 3.03634 13.8956C3.03634 14.1962 2.80835 14.4242 2.51817 14.4242ZM2.51817 12.5173C2.22799 12.5173 2 12.2893 2 11.9991C2 11.7089 2.22799 11.4809 2.51817 11.4809C2.80835 11.4809 3.03634 11.7089 3.03634 11.9888C3.03634 12.2893 2.80835 12.5173 2.51817 12.5173ZM2.51817 10.6001C2.22799 10.6001 2 10.3721 2 10.0819C2 9.79171 2.22799 9.56371 2.51817 9.56371C2.80835 9.56371 3.03634 9.79171 3.03634 10.0715C3.03634 10.3721 2.80835 10.6001 2.51817 10.6001ZM2.51817 8.68282C2.22799 8.68282 2 8.45483 2 8.16465C2 7.87448 2.22799 7.64648 2.51817 7.64648C2.80835 7.64648 3.03634 7.87448 3.03634 8.15429C3.03634 8.45483 2.80835 8.68282 2.51817 8.68282Z" fill="#825DFF"/>
<path d="M2.50781 18.2582C2.37308 18.2582 2.24872 18.1961 2.14509 18.1028C2.05182 17.9991 2 17.8748 2 17.7401C2 17.595 2.05182 17.4706 2.14509 17.367C2.30054 17.2219 2.51817 17.1804 2.71508 17.253C2.77726 17.2841 2.82907 17.3255 2.88089 17.367C2.93271 17.4188 2.9638 17.4706 2.99489 17.5328C3.01561 17.6053 3.03634 17.6675 3.03634 17.7401C3.03634 17.8748 2.97416 17.9991 2.88089 18.1028C2.82907 18.1546 2.77726 18.1857 2.71508 18.2168C2.65289 18.2375 2.58035 18.2582 2.50781 18.2582Z" fill="#825DFF"/>
<path d="M10.7994 23.036C10.7061 23.036 10.6128 23.0049 10.5196 22.9531C10.2812 22.7977 10.1983 22.4764 10.3537 22.238C10.5092 21.9997 10.8201 21.9168 11.0688 22.0722C11.3072 22.2277 11.3797 22.5489 11.2346 22.7977C11.131 22.9531 10.9652 23.036 10.7994 23.036ZM9.14123 22.0826C9.04796 22.0826 8.95469 22.0515 8.86142 21.9997C8.62306 21.8442 8.54015 21.523 8.6956 21.2846C8.85105 21.0463 9.16196 20.9633 9.41068 21.1188C9.64904 21.2742 9.72158 21.5955 9.57649 21.8442C9.47286 21.9997 9.30704 22.0826 9.14123 22.0826ZM7.49345 21.1188C7.41054 21.1188 7.32763 21.0981 7.25509 21.0566C7.00637 20.9219 6.90273 20.611 7.03746 20.3519C7.17218 20.0928 7.48308 19.9995 7.73181 20.1343C7.98053 20.269 8.08416 20.5903 7.94944 20.839C7.85617 21.0152 7.67999 21.1188 7.49345 21.1188ZM5.8353 20.1654C5.74203 20.1654 5.64876 20.1446 5.56585 20.0928C5.31713 19.9477 5.23422 19.6265 5.37931 19.3777C5.5244 19.129 5.8353 19.0461 6.08402 19.2016C6.33275 19.357 6.40529 19.6783 6.2602 19.9166C6.16693 20.0825 5.99075 20.1654 5.81458 20.1654H5.8353ZM4.17716 19.2119C4.08389 19.2119 3.99062 19.1808 3.89735 19.129C3.65899 18.9736 3.57608 18.6523 3.73153 18.4139C3.88698 18.1756 4.19788 18.0927 4.44661 18.2481C4.68496 18.4036 4.75751 18.7248 4.61242 18.9736C4.50879 19.129 4.34297 19.2119 4.17716 19.2119Z" fill="#825DFF"/>
<path d="M12.4557 23.9999C12.3831 23.9999 12.3209 23.9792 12.2588 23.9585C12.1966 23.9274 12.1344 23.8963 12.0826 23.8445C12.0411 23.7927 11.9997 23.7408 11.979 23.6787C11.9479 23.6061 11.9375 23.5439 11.9375 23.4714C11.9375 23.4092 11.9479 23.3367 11.979 23.2745C11.9997 23.2123 12.0411 23.1605 12.0826 23.1087C12.1344 23.0569 12.1966 23.0258 12.2588 22.9947C12.3831 22.9429 12.5282 22.9429 12.6526 22.9947C12.7148 23.0258 12.7769 23.0569 12.8184 23.1087C12.8702 23.1605 12.9013 23.2123 12.9324 23.2745C12.9635 23.3367 12.9738 23.4092 12.9738 23.4714C12.9738 23.5439 12.9738 23.6061 12.9324 23.6787C12.9013 23.7408 12.8702 23.7927 12.8184 23.8445C12.7769 23.8859 12.7148 23.9274 12.6526 23.9585C12.5904 23.9792 12.5179 23.9999 12.4557 23.9999Z" fill="#825DFF"/>
<path d="M14.1151 23.0362C13.9389 23.0362 13.7731 22.9533 13.6798 22.7978C13.5244 22.5595 13.5969 22.2382 13.8353 22.0828C14.0736 21.9273 14.3949 21.9998 14.5503 22.2382C14.7058 22.4766 14.6332 22.7978 14.3845 22.9533C14.3016 23.0051 14.198 23.0362 14.1047 23.0362H14.1151ZM15.7732 22.0828C15.597 22.0828 15.4209 21.9998 15.3276 21.834C15.1825 21.5853 15.255 21.2744 15.5038 21.1293C15.7525 20.9739 16.0634 21.0568 16.2188 21.3055C16.3639 21.5542 16.2914 21.8651 16.0427 22.0206C15.9598 22.0724 15.8665 22.0931 15.7732 22.0931V22.0828ZM17.4314 21.119C17.2448 21.119 17.0583 21.0153 16.9754 20.8391C16.8406 20.5904 16.9339 20.2795 17.193 20.1448C17.4417 20.0101 17.763 20.1033 17.8977 20.3624C18.0324 20.6112 17.9288 20.9324 17.6801 21.0568C17.5972 21.0982 17.5143 21.119 17.4314 21.119ZM19.0791 20.1655C18.903 20.1655 18.7371 20.0826 18.6439 19.9272C18.4884 19.6888 18.561 19.3675 18.7993 19.2121C19.0377 19.0566 19.3589 19.1292 19.5144 19.3675C19.6698 19.6059 19.5973 19.9272 19.3486 20.0826C19.2657 20.1344 19.162 20.1655 19.0688 20.1655H19.0791ZM20.7373 19.2121C20.5611 19.2121 20.3953 19.1292 20.302 18.9737C20.1466 18.7354 20.2191 18.4141 20.4575 18.2587C20.7062 18.1032 21.0171 18.1758 21.1725 18.4141C21.328 18.6525 21.2555 18.9737 21.0067 19.1292C20.9238 19.181 20.8202 19.2121 20.7269 19.2121H20.7373Z" fill="#825DFF"/>
<path d="M22.3951 6.77615C22.2604 6.77615 22.1257 6.72434 22.0324 6.6207C21.9806 6.57925 21.9391 6.51707 21.9184 6.45489C21.8873 6.39271 21.877 6.33053 21.877 6.25798C21.877 6.12326 21.9288 5.98853 22.0324 5.89526C22.1775 5.75018 22.4055 5.69836 22.592 5.78127C22.6542 5.80199 22.7164 5.84345 22.7578 5.89526C22.8615 5.98853 22.9133 6.12326 22.9133 6.25798C22.9133 6.33053 22.9029 6.39271 22.8718 6.45489C22.8511 6.51707 22.8097 6.57925 22.7578 6.6207C22.7164 6.67252 22.6542 6.71397 22.592 6.7347C22.5298 6.76579 22.4677 6.77615 22.3951 6.77615Z" fill="#825DFF"/>
<path d="M14.1146 11.5535C13.9384 11.5535 13.7726 11.4706 13.6793 11.3152C13.5239 11.0768 13.5964 10.7555 13.8451 10.6001C14.0939 10.4446 14.4151 10.5172 14.5602 10.7555C14.7157 10.9939 14.6431 11.3152 14.4048 11.4706C14.3219 11.5328 14.2182 11.5535 14.125 11.5535H14.1146ZM15.7727 10.6001C15.5966 10.6001 15.4307 10.5172 15.3375 10.3617C15.182 10.1234 15.2546 9.80211 15.5033 9.64666C15.7416 9.49121 16.0733 9.56375 16.2184 9.80211C16.3738 10.0405 16.3013 10.3617 16.0629 10.5172C15.98 10.5794 15.8764 10.6001 15.7831 10.6001H15.7727ZM17.4309 9.64666C17.2443 9.64666 17.0682 9.54302 16.9749 9.36684C16.8402 9.11812 16.9438 8.79686 17.1925 8.6725C17.4412 8.53777 17.7625 8.63104 17.8972 8.89013C18.032 9.13885 17.9387 9.44975 17.6796 9.58448C17.6071 9.62593 17.5242 9.64666 17.4412 9.64666H17.4309ZM19.089 8.68286C18.9129 8.68286 18.7367 8.58959 18.6434 8.43414C18.4983 8.18542 18.5709 7.87451 18.8196 7.71906C19.0683 7.57398 19.3896 7.64652 19.5347 7.89524C19.6797 8.14396 19.6072 8.45486 19.3585 8.59995C19.2756 8.65177 19.1823 8.68286 19.089 8.68286ZM20.7472 7.72943C20.571 7.72943 20.4052 7.64652 20.3119 7.49107C20.1565 7.25271 20.229 6.93144 20.4777 6.77599C20.7161 6.62054 21.0477 6.69309 21.1928 6.93144C21.3483 7.1698 21.2757 7.49107 21.0373 7.64652C20.9544 7.7087 20.8508 7.72943 20.7575 7.72943H20.7472Z" fill="#825DFF"/>
<path d="M12.4557 12.5176C12.3831 12.5176 12.3209 12.4969 12.2588 12.4762C12.1966 12.4451 12.1344 12.414 12.0826 12.3622C12.0411 12.3103 11.9997 12.2585 11.979 12.1963C11.9479 12.1342 11.9375 12.0616 11.9375 11.9994C11.9375 11.9269 11.9479 11.8647 11.979 11.8025C11.9997 11.7404 12.0411 11.6782 12.0826 11.6264C12.1344 11.5849 12.1966 11.5435 12.2588 11.5227C12.4453 11.4398 12.6733 11.4813 12.8184 11.6264C12.8702 11.6782 12.9013 11.7404 12.9324 11.8025C12.9531 11.8647 12.9738 11.9269 12.9738 11.9994C12.9738 12.0616 12.9531 12.1342 12.9324 12.1963C12.9013 12.2585 12.8702 12.3103 12.8184 12.3622C12.7251 12.4554 12.5904 12.5176 12.4557 12.5176Z" fill="#825DFF"/>
<path d="M10.8081 11.5639C10.7149 11.5639 10.6216 11.5432 10.5387 11.481C10.3003 11.3255 10.2278 11.0043 10.3729 10.7555C10.5283 10.5172 10.8496 10.4446 11.088 10.5897C11.3263 10.7452 11.4092 11.0664 11.2538 11.3048C11.1501 11.4603 10.9843 11.5535 10.8185 11.5535L10.8081 11.5639ZM9.14999 10.6001C9.05672 10.6001 8.96345 10.5794 8.88055 10.5172C8.64219 10.3617 8.56964 10.0405 8.71473 9.79174C8.87018 9.55338 9.19145 9.48084 9.42981 9.62593C9.66817 9.78138 9.75107 10.1026 9.59562 10.341C9.49199 10.4965 9.32617 10.5897 9.16036 10.5897L9.14999 10.6001ZM7.49185 9.64666C7.39858 9.64666 7.30531 9.62593 7.2224 9.56375C6.98404 9.4083 6.9115 9.08703 7.05659 8.83831C7.20167 8.58959 7.5333 8.52741 7.77166 8.67249C8.01002 8.82795 8.09293 9.14921 7.93748 9.38757C7.83384 9.54302 7.66803 9.63629 7.50221 9.63629L7.49185 9.64666ZM5.8337 8.69322C5.7508 8.69322 5.66789 8.67249 5.59535 8.63104C5.34662 8.49632 5.24299 8.17505 5.37771 7.92633C5.51244 7.66724 5.82334 7.57397 6.08243 7.7087C6.33115 7.84342 6.43478 8.15432 6.30006 8.41341C6.20679 8.58959 6.03061 8.69322 5.84407 8.69322H5.8337ZM4.17556 7.73979C4.09265 7.73979 4.00975 7.71906 3.9372 7.67761C3.68848 7.54288 3.58485 7.22162 3.71957 6.9729C3.85429 6.71381 4.1652 6.62054 4.42428 6.75526C4.673 6.88999 4.77664 7.20089 4.64191 7.45998C4.54864 7.63615 4.37246 7.73979 4.18592 7.73979H4.17556Z" fill="#825DFF"/>
<path d="M2.51817 6.77613C2.37308 6.77613 2.24872 6.72431 2.14509 6.62068C2.09327 6.57922 2.06218 6.51704 2.03109 6.45486C2.01036 6.39268 2 6.3305 2 6.25796C2 6.12323 2.05182 5.98851 2.14509 5.89524C2.34199 5.69833 2.68398 5.69833 2.88089 5.89524C2.97416 5.98851 3.03634 6.12323 3.03634 6.25796C3.03634 6.3305 3.01561 6.39268 2.99489 6.45486C2.9638 6.51704 2.93271 6.57922 2.88089 6.62068C2.77726 6.72431 2.65289 6.77613 2.51817 6.77613Z" fill="#825DFF"/>
<path d="M17.4225 15.3778C17.2877 15.3778 17.153 15.3259 17.0597 15.2327C16.9561 15.129 16.9043 15.0047 16.9043 14.8699C16.9043 14.7974 16.9147 14.7249 16.9458 14.6627C16.9665 14.6005 17.0079 14.5487 17.0597 14.4969C17.2048 14.3518 17.4328 14.3103 17.6194 14.3829C17.6816 14.414 17.7437 14.445 17.7852 14.4969C17.8888 14.6005 17.9406 14.7249 17.9406 14.8699C17.9406 15.0047 17.8888 15.129 17.7852 15.2327C17.7437 15.2741 17.6816 15.3156 17.6194 15.3467C17.5572 15.3674 17.495 15.3778 17.4225 15.3778Z" fill="#825DFF"/>
<path d="M20.7396 17.2952C20.6463 17.2952 20.5531 17.2642 20.4598 17.2123C20.2214 17.0569 20.1385 16.7356 20.294 16.4973C20.4494 16.2589 20.7603 16.176 21.009 16.3314C21.2474 16.4869 21.32 16.8082 21.1749 17.0569C21.0712 17.2123 20.9054 17.2952 20.7396 17.2952ZM19.0815 16.3418C18.9882 16.3418 18.8949 16.3107 18.8016 16.2589C18.5633 16.1035 18.4804 15.7822 18.6358 15.5438C18.7913 15.3055 19.1022 15.2226 19.3509 15.378C19.5893 15.5335 19.6618 15.8547 19.5167 16.1035C19.4131 16.2589 19.2473 16.3418 19.0815 16.3418Z" fill="#825DFF"/>
<path d="M22.3971 18.259C22.2624 18.259 22.1276 18.1968 22.0344 18.1035C21.9307 18.0102 21.8789 17.8755 21.8789 17.7408C21.8789 17.5957 21.9307 17.461 22.0344 17.3677C22.1794 17.2226 22.4074 17.1812 22.594 17.2537C22.6562 17.2848 22.7183 17.3263 22.7702 17.3677C22.8116 17.4195 22.8531 17.4713 22.8738 17.5335C22.9049 17.6061 22.9152 17.6683 22.9152 17.7408C22.9152 17.8755 22.8634 17.9999 22.7702 18.1035C22.6665 18.1968 22.5318 18.259 22.3971 18.259Z" fill="#825DFF"/>
<path d="M12.4557 24.0002C12.3831 24.0002 12.3209 23.9794 12.2588 23.9587C12.1966 23.9276 12.1344 23.8965 12.0826 23.8447C12.0411 23.7929 11.9997 23.7411 11.979 23.6789C11.9479 23.6064 11.9375 23.5442 11.9375 23.4716C11.9375 23.4095 11.9479 23.3369 11.979 23.2747C11.9997 23.2125 12.0411 23.1607 12.0826 23.1089C12.1344 23.0571 12.1966 23.026 12.2588 22.9949C12.3831 22.9431 12.5282 22.9431 12.6526 22.9949C12.7148 23.026 12.7769 23.0571 12.8184 23.1089C12.8702 23.1607 12.9013 23.2125 12.9324 23.2747C12.9635 23.3369 12.9738 23.4095 12.9738 23.4716C12.9738 23.5442 12.9738 23.6064 12.9324 23.6789C12.9013 23.7411 12.8702 23.7929 12.8184 23.8447C12.7769 23.8862 12.7148 23.9276 12.6526 23.9587C12.5904 23.9794 12.5179 24.0002 12.4557 24.0002Z" fill="#825DFF"/>
<path d="M12.4557 22.0831C12.1655 22.0831 11.9375 21.8551 11.9375 21.5753C11.9375 21.2747 12.1655 21.0467 12.4557 21.0467C12.7458 21.0467 12.9738 21.2747 12.9738 21.5649C12.9738 21.8551 12.7458 22.0831 12.4557 22.0831ZM12.4557 20.1659C12.1655 20.1659 11.9375 19.9379 11.9375 19.658C11.9375 19.3575 12.1655 19.1295 12.4557 19.1295C12.7458 19.1295 12.9738 19.3575 12.9738 19.6477C12.9738 19.9379 12.7458 20.1659 12.4557 20.1659ZM12.4557 18.259C12.1655 18.259 11.9375 18.031 11.9375 17.7408C11.9375 17.4403 12.1655 17.2123 12.4557 17.2123C12.7458 17.2123 12.9738 17.4403 12.9738 17.7305C12.9738 18.0206 12.7458 18.259 12.4557 18.259ZM12.4557 16.3418C12.1655 16.3418 11.9375 16.1138 11.9375 15.8236C11.9375 15.523 12.1655 15.2951 12.4557 15.2951C12.7458 15.2951 12.9738 15.523 12.9738 15.8132C12.9738 16.1034 12.7458 16.3418 12.4557 16.3418ZM12.4557 14.4349C12.1655 14.4349 11.9375 14.2069 11.9375 13.9167C11.9375 13.6162 12.1655 13.3882 12.4557 13.3882C12.7458 13.3882 12.9738 13.6162 12.9738 13.9064C12.9738 14.1965 12.7458 14.4349 12.4557 14.4349Z" fill="#825DFF"/>
<path d="M12.4557 12.5174C12.3831 12.5174 12.3209 12.4966 12.2588 12.4759C12.1966 12.4448 12.1344 12.4137 12.0826 12.3619C12.0411 12.3101 11.9997 12.2583 11.979 12.1961C11.9479 12.1339 11.9375 12.0614 11.9375 11.9992C11.9375 11.9267 11.9479 11.8645 11.979 11.8023C11.9997 11.7401 12.0411 11.6779 12.0826 11.6261C12.1344 11.5847 12.1966 11.5432 12.2588 11.5225C12.4453 11.4396 12.6733 11.481 12.8184 11.6261C12.8702 11.6779 12.9013 11.7401 12.9324 11.8023C12.9531 11.8645 12.9738 11.9267 12.9738 11.9992C12.9738 12.0614 12.9531 12.1339 12.9324 12.1961C12.9013 12.2583 12.8702 12.3101 12.8184 12.3619C12.7251 12.4552 12.5904 12.5174 12.4557 12.5174Z" fill="#825DFF"/>
<path d="M7.51231 15.4082C7.37759 15.4082 7.24286 15.3461 7.14959 15.2528C7.09777 15.201 7.06668 15.1492 7.03559 15.087C7.01487 15.0248 6.99414 14.9522 6.99414 14.8901C6.99414 14.745 7.05632 14.6206 7.14959 14.517C7.29468 14.3719 7.52267 14.3304 7.70922 14.4133C7.7714 14.4341 7.83358 14.4755 7.88539 14.517C7.97866 14.6206 8.03048 14.745 8.03048 14.8901C8.03048 14.9522 8.03048 15.0248 7.98903 15.087C7.9683 15.1492 7.92685 15.201 7.88539 15.2528C7.83358 15.3046 7.7714 15.3357 7.70922 15.3668C7.64704 15.3875 7.58485 15.4082 7.51231 15.4082Z" fill="#825DFF"/>
<path d="M4.18728 17.3049C4.00074 17.3049 3.82456 17.2013 3.73129 17.0251C3.59656 16.7764 3.7002 16.4551 3.94892 16.3308C4.19764 16.196 4.51891 16.2893 4.65363 16.5484C4.78836 16.7971 4.69509 17.108 4.436 17.2427C4.36346 17.2842 4.28055 17.3049 4.19764 17.3049H4.18728ZM5.85579 16.3515C5.66925 16.3515 5.49307 16.2479 5.3998 16.0717C5.26507 15.823 5.36871 15.5017 5.61743 15.3773C5.87651 15.2426 6.18742 15.3359 6.32214 15.595C6.45686 15.8437 6.36359 16.1546 6.10451 16.2893C6.03196 16.3308 5.94906 16.3515 5.86615 16.3515H5.85579Z" fill="#825DFF"/>
<path d="M2.50781 18.2582C2.37308 18.2582 2.24872 18.1961 2.14509 18.1028C2.05182 17.9991 2 17.8748 2 17.7401C2 17.595 2.05182 17.4706 2.14509 17.367C2.30054 17.2219 2.51817 17.1804 2.71508 17.253C2.77726 17.2841 2.82907 17.3255 2.88089 17.367C2.93271 17.4188 2.9638 17.4706 2.99489 17.5328C3.01561 17.6053 3.03634 17.6675 3.03634 17.7401C3.03634 17.8748 2.97416 17.9991 2.88089 18.1028C2.82907 18.1546 2.77726 18.1857 2.71508 18.2168C2.65289 18.2375 2.58035 18.2582 2.50781 18.2582Z" fill="#825DFF"/>
<path d="M12.4557 1.03445C12.3209 1.03445 12.1862 0.982637 12.0826 0.889367C11.9893 0.785732 11.9375 0.651008 11.9375 0.516284C11.9375 0.38156 11.9893 0.246835 12.0826 0.153565C12.238 0.00847712 12.466 -0.0433399 12.6526 0.0395673C12.7148 0.0602941 12.7666 0.101748 12.8184 0.153565C12.9117 0.246835 12.9738 0.38156 12.9738 0.516284C12.9738 0.651008 12.9117 0.785732 12.8184 0.889367C12.7666 0.93082 12.7148 0.972274 12.6526 0.993001C12.5904 1.02409 12.5179 1.03445 12.4557 1.03445Z" fill="#825DFF"/>
<path d="M12.4557 4.88958C12.1655 4.88958 11.9375 4.66159 11.9375 4.37141C11.9375 4.08123 12.1655 3.85324 12.4557 3.85324C12.7458 3.85324 12.9738 4.08124 12.9738 4.36105C12.9738 4.66159 12.7458 4.88958 12.4557 4.88958ZM12.4557 2.96199C12.1655 2.96199 11.9375 2.73399 11.9375 2.44382C11.9375 2.15364 12.1655 1.91528 12.4557 1.91528C12.7458 1.91528 12.9738 2.14328 12.9738 2.43345C12.9738 2.73399 12.7458 2.96199 12.4557 2.96199Z" fill="#825DFF"/>
<path d="M12.4557 6.8169C12.3106 6.8169 12.1862 6.76508 12.093 6.67181C11.9893 6.56818 11.9375 6.44382 11.9375 6.29873C11.9375 6.23655 11.9479 6.164 11.979 6.10182C11.9997 6.03964 12.0411 5.98783 12.093 5.93601C12.2899 5.7391 12.6215 5.7391 12.8184 5.93601C12.8702 5.98783 12.9117 6.03964 12.9324 6.10182C12.9635 6.164 12.9738 6.23655 12.9738 6.29873C12.9738 6.44382 12.922 6.56818 12.8184 6.67181C12.7251 6.76508 12.5904 6.8169 12.4557 6.8169Z" fill="#825DFF"/>
<path d="M17.1626 21.0567L7.25518 15.3361L6.99609 14.8905V3.44929L7.77335 3.00366L17.6808 8.72426L17.9398 9.16989V20.6111L17.1626 21.0567ZM8.0428 14.59L16.9139 19.7095V9.47043L8.0428 4.34054V14.5796V14.59Z" fill="#825DFF"/>
</svg>
