<svg width="24" height="24" viewBox="0 0 24 24" fill="none" xmlns="http://www.w3.org/2000/svg">
<path d="M21.0107 17.4456C20.9278 17.4456 20.8344 17.4249 20.7619 17.3834C20.513 17.2486 20.4196 16.9271 20.5544 16.6782C20.6996 16.4293 21.0107 16.336 21.2596 16.4708C21.5085 16.616 21.6019 16.9271 21.4567 17.1864C21.3633 17.3523 21.187 17.456 21.0004 17.456L21.0107 17.4456ZM19.3826 16.5123C19.2996 16.5123 19.2063 16.4916 19.1337 16.4501C18.8848 16.3153 18.7915 15.9938 18.9263 15.7449C19.0611 15.496 19.3826 15.4027 19.6315 15.5375C19.8804 15.6827 19.9737 15.9938 19.8285 16.253C19.7352 16.419 19.5589 16.5227 19.3722 16.5227L19.3826 16.5123ZM17.7544 15.5686C17.6714 15.5686 17.5781 15.5478 17.5055 15.5064C17.2566 15.3715 17.1633 15.0501 17.2981 14.8012C17.4329 14.5523 17.7544 14.4589 18.0033 14.5937C18.2522 14.7389 18.3455 15.0501 18.2003 15.3093C18.107 15.4752 17.9307 15.579 17.744 15.579L17.7544 15.5686Z" fill="#4027FF"/>
<path d="M22.4189 18.2653C22.2841 18.2653 22.1493 18.2031 22.0559 18.1097C21.9522 18.0164 21.9004 17.8816 21.9004 17.7468C21.9004 17.6016 21.9522 17.4668 22.0559 17.3734C22.2011 17.2282 22.4293 17.1868 22.616 17.2594C22.6782 17.2905 22.7404 17.3319 22.7819 17.3734C22.8337 17.4253 22.8752 17.4771 22.896 17.5394C22.9271 17.6016 22.9374 17.6742 22.9374 17.7468C22.9374 17.8816 22.8856 18.006 22.7819 18.1097C22.7404 18.1616 22.6782 18.1927 22.616 18.2238C22.5537 18.2446 22.4915 18.2653 22.4189 18.2653Z" fill="#4027FF"/>
<path d="M22.4189 16.357C22.1285 16.357 21.9004 16.1288 21.9004 15.8488C21.9004 15.5481 22.1285 15.3199 22.4189 15.3199C22.7093 15.3199 22.9374 15.5481 22.9374 15.8385C22.9374 16.1288 22.7093 16.357 22.4189 16.357ZM22.4189 14.4385C22.1285 14.4385 21.9004 14.2103 21.9004 13.9303C21.9004 13.6295 22.1285 13.4014 22.4189 13.4014C22.7093 13.4014 22.9374 13.6295 22.9374 13.9199C22.9374 14.2103 22.7093 14.4385 22.4189 14.4385ZM22.4189 12.5199C22.1285 12.5199 21.9004 12.2917 21.9004 12.0117C21.9004 11.711 22.1285 11.4828 22.4189 11.4828C22.7093 11.4828 22.9374 11.711 22.9374 12.0014C22.9374 12.2917 22.7093 12.5199 22.4189 12.5199ZM22.4189 10.6117C22.1285 10.6117 21.9004 10.3836 21.9004 10.1036C21.9004 9.80282 22.1285 9.57467 22.4189 9.57467C22.7093 9.57467 22.9374 9.80282 22.9374 10.0932C22.9374 10.3836 22.7093 10.6117 22.4189 10.6117ZM22.4189 8.69318C22.1285 8.69318 21.9004 8.46502 21.9004 8.17465C21.9004 7.8739 22.1285 7.64575 22.4189 7.64575C22.7093 7.64575 22.9374 7.8739 22.9374 8.16428C22.9374 8.45465 22.7093 8.69318 22.4189 8.69318Z" fill="#4027FF"/>
<path d="M22.4189 6.77464C22.2841 6.77464 22.1493 6.72278 22.0559 6.61908C22.0041 6.5776 21.9626 6.51537 21.9419 6.45315C21.9108 6.39093 21.9004 6.3287 21.9004 6.25611C21.9004 6.12129 21.9522 5.98648 22.0559 5.89314C22.253 5.6961 22.5952 5.6961 22.7923 5.89314C22.8856 5.98648 22.9374 6.12129 22.9374 6.25611C22.9374 6.31833 22.9374 6.39093 22.896 6.45315C22.8752 6.51537 22.8337 6.5776 22.7923 6.61908C22.6885 6.72278 22.5537 6.77464 22.4189 6.77464Z" fill="#4027FF"/>
<path d="M20.7701 5.82041C20.6768 5.82041 20.5834 5.79967 20.5005 5.73744C20.2619 5.58188 20.1893 5.2604 20.3345 5.01151C20.4901 4.77298 20.8116 4.70039 21.0501 4.84558C21.2886 5.00113 21.3716 5.32262 21.216 5.56114C21.1123 5.7167 20.9464 5.81004 20.7805 5.81004L20.7701 5.82041ZM19.1108 4.86632C19.0175 4.86632 18.9241 4.84558 18.8412 4.78335C18.6026 4.6278 18.5301 4.30631 18.6752 4.05742C18.8308 3.81889 19.1523 3.7463 19.3908 3.89149C19.6293 4.04705 19.7123 4.36853 19.5567 4.60705C19.453 4.76261 19.2871 4.85595 19.1212 4.85595L19.1108 4.86632ZM17.4515 3.91223C17.3582 3.91223 17.2648 3.89149 17.1819 3.82926C16.9434 3.67371 16.8708 3.35222 17.016 3.10333C17.1715 2.86481 17.493 2.79221 17.7315 2.9374C17.97 3.09296 18.053 3.41444 17.8974 3.65297C17.7937 3.80852 17.6278 3.90186 17.4619 3.90186L17.4515 3.91223ZM15.7922 2.94777C15.7093 2.94777 15.6263 2.92703 15.5537 2.88555C15.3048 2.75073 15.2011 2.42924 15.3359 2.18035C15.4707 1.92109 15.7819 1.82775 16.0411 1.96257C16.29 2.09739 16.3937 2.4085 16.2589 2.66777C16.1656 2.84406 15.9893 2.94777 15.8026 2.94777H15.7922ZM14.1329 1.99368C14.05 1.99368 13.967 1.97294 13.8944 1.93146C13.6455 1.79664 13.5418 1.47515 13.6766 1.22626C13.8115 0.966998 14.1226 0.873663 14.3818 1.00848C14.6307 1.1433 14.7344 1.45441 14.5996 1.71368C14.5063 1.88998 14.33 1.99368 14.1433 1.99368H14.1329Z" fill="#4027FF"/>
<path d="M12.4736 1.02928C12.3388 1.02928 12.204 0.977423 12.1003 0.884088C12.0069 0.780383 11.9551 0.645566 11.9551 0.510749C11.9551 0.448526 11.9551 0.375932 11.9966 0.313709C12.0173 0.251485 12.0588 0.189262 12.1003 0.14778C12.2973 -0.04926 12.6499 -0.04926 12.8366 0.14778C12.8884 0.189262 12.9195 0.251485 12.9506 0.313709C12.9714 0.375932 12.9921 0.438155 12.9921 0.510749C12.9921 0.583342 12.9714 0.645566 12.9506 0.707789C12.9195 0.770012 12.8884 0.832235 12.8366 0.884088C12.7951 0.92557 12.7329 0.967052 12.6706 0.987793C12.6084 1.0189 12.5358 1.02928 12.4736 1.02928Z" fill="#4027FF"/>
<path d="M4.17745 5.82054C4.00115 5.82054 3.83522 5.73757 3.74189 5.58201C3.58633 5.34349 3.65892 5.02201 3.90782 4.86645C4.14634 4.71089 4.47819 4.78348 4.62338 5.02201C4.77894 5.26053 4.70635 5.58201 4.46782 5.73757C4.38486 5.7998 4.28115 5.82054 4.18782 5.82054H4.17745ZM5.83673 4.86645C5.66044 4.86645 5.49451 4.78348 5.40117 4.62793C5.24561 4.3894 5.31821 4.06792 5.5671 3.91236C5.80562 3.7568 6.13748 3.82939 6.28267 4.06792C6.43823 4.30644 6.36563 4.62793 6.12711 4.78348C6.04414 4.84571 5.94044 4.86645 5.8471 4.86645H5.83673ZM7.49602 3.90199C7.30935 3.90199 7.13305 3.79828 7.03972 3.62198C6.9049 3.37309 7.0086 3.0516 7.2575 2.92716C7.51676 2.79234 7.82788 2.88568 7.96269 3.14494C8.09751 3.39383 8.00418 3.70495 7.74491 3.83976C7.67232 3.88125 7.58935 3.90199 7.50639 3.90199H7.49602ZM9.1553 2.9479C8.97901 2.9479 8.80271 2.85456 8.70937 2.69901C8.56418 2.45011 8.63678 2.139 8.88567 1.98344C9.13456 1.83825 9.45605 1.91085 9.60124 2.15974C9.74642 2.40863 9.67383 2.71975 9.42494 2.86493C9.34197 2.91679 9.24864 2.9479 9.1553 2.9479ZM10.8146 1.99381C10.6383 1.99381 10.4724 1.91085 10.379 1.75529C10.2235 1.51677 10.2961 1.19528 10.545 1.03972C10.7835 0.884163 11.1153 0.956757 11.2605 1.19528C11.4161 1.4338 11.3435 1.75529 11.105 1.91085C11.022 1.97307 10.9183 1.99381 10.825 1.99381H10.8146Z" fill="#4027FF"/>
<path d="M2.5289 6.77442C2.4563 6.77442 2.38371 6.77442 2.32149 6.73294C2.25926 6.7122 2.20741 6.67072 2.15556 6.61887C2.10371 6.57738 2.07259 6.51516 2.04148 6.45294C2.02074 6.39071 2 6.31812 2 6.2559C2 6.12108 2.06222 5.98626 2.15556 5.89293C2.20741 5.84108 2.25926 5.79959 2.32149 5.77885C2.51853 5.69589 2.74668 5.74774 2.89187 5.89293C2.9852 5.98626 3.04742 6.12108 3.04742 6.2559C3.04742 6.32849 3.02668 6.39071 3.00594 6.45294C2.97483 6.51516 2.94372 6.57738 2.89187 6.61887C2.78816 6.72257 2.66371 6.77442 2.5289 6.77442Z" fill="#4027FF"/>
<path d="M2.51853 16.3463C2.23852 16.3463 2 16.1181 2 15.8277C2 15.5374 2.22815 15.2988 2.51853 15.2988C2.8089 15.2988 3.03705 15.527 3.03705 15.8174C3.03705 16.1181 2.8089 16.3463 2.51853 16.3463ZM2.51853 14.4381C2.23852 14.4381 2 14.1996 2 13.9196C2 13.6396 2.22815 13.401 2.51853 13.401C2.8089 13.401 3.03705 13.6292 3.03705 13.9092C3.03705 14.2099 2.8089 14.4381 2.51853 14.4381ZM2.51853 12.5195C2.23852 12.5195 2 12.2914 2 12.001C2 11.7106 2.22815 11.4825 2.51853 11.4825C2.8089 11.4825 3.03705 11.7106 3.03705 11.9906C3.03705 12.2914 2.8089 12.5195 2.51853 12.5195ZM2.51853 10.601C2.23852 10.601 2 10.3728 2 10.0825C2 9.79209 2.22815 9.56394 2.51853 9.56394C2.8089 9.56394 3.03705 9.79209 3.03705 10.0721C3.03705 10.3728 2.8089 10.601 2.51853 10.601ZM2.51853 8.69281C2.23852 8.69281 2 8.45429 2 8.17429C2 7.89428 2.22815 7.65576 2.51853 7.65576C2.8089 7.65576 3.03705 7.88391 3.03705 8.16392C3.03705 8.46466 2.8089 8.69281 2.51853 8.69281Z" fill="#4027FF"/>
<path d="M2.5289 18.265C2.4563 18.265 2.38371 18.2443 2.32149 18.2235C2.25926 18.1924 2.20741 18.1613 2.15556 18.1095C2.06222 18.0161 2 17.8813 2 17.7465C2 17.6739 2.02074 17.6013 2.04148 17.5391C2.07259 17.4769 2.10371 17.425 2.15556 17.3732C2.3526 17.1865 2.69483 17.1761 2.89187 17.3732C2.94372 17.425 2.97483 17.4769 3.00594 17.5391C3.02668 17.6013 3.04742 17.6739 3.04742 17.7465C3.04742 17.8813 2.9852 18.0161 2.89187 18.1095C2.78816 18.2028 2.66371 18.265 2.5289 18.265Z" fill="#4027FF"/>
<path d="M10.8147 23.0457C10.7213 23.0457 10.628 23.0146 10.5347 22.9628C10.2961 22.8072 10.2132 22.4857 10.3687 22.2472C10.5243 22.0087 10.8354 21.9257 11.0843 22.0813C11.3228 22.2368 11.3954 22.5583 11.2502 22.8072C11.1465 22.9628 10.9806 23.0457 10.8147 23.0457ZM9.15537 22.0916C9.06204 22.0916 8.9687 22.0605 8.87537 22.0087C8.63685 21.8531 8.55388 21.5316 8.70944 21.2931C8.865 21.0546 9.17611 20.9716 9.42501 21.1272C9.66353 21.2827 9.73612 21.6042 9.59094 21.8531C9.48723 22.0087 9.3213 22.0916 9.15537 22.0916ZM7.49609 21.1375C7.41312 21.1375 7.33016 21.1168 7.25757 21.0753C7.00867 20.9405 6.90497 20.6294 7.03979 20.3701C7.1746 20.1109 7.48572 20.0175 7.73461 20.1523C7.9835 20.2872 8.08721 20.6086 7.95239 20.8575C7.85906 21.0338 7.68276 21.1375 7.49609 21.1375ZM5.8368 20.1731C5.74347 20.1731 5.65013 20.1523 5.56717 20.1005C5.31828 19.9553 5.23531 19.6338 5.3805 19.3849C5.52569 19.136 5.8368 19.0531 6.0857 19.2086C6.33459 19.3642 6.40718 19.6857 6.262 19.9242C6.16866 20.0901 5.99236 20.1731 5.81606 20.1731H5.8368ZM4.17752 19.219C4.08418 19.219 3.99085 19.1879 3.89751 19.136C3.65899 18.9805 3.57603 18.659 3.73159 18.4205C3.88714 18.1819 4.19826 18.099 4.44715 18.2545C4.68567 18.4101 4.75827 18.7316 4.61308 18.9805C4.50938 19.136 4.34345 19.219 4.17752 19.219Z" fill="#4027FF"/>
<path d="M12.4736 24.0003C12.401 24.0003 12.3388 23.9899 12.2766 23.9692C12.2143 23.9381 12.1521 23.907 12.1106 23.8551C12.0069 23.7514 11.9551 23.6269 11.9551 23.4818C11.9551 23.3469 12.0069 23.2225 12.1106 23.1188C12.1521 23.0773 12.2143 23.0358 12.2766 23.0047C12.4632 22.9321 12.6914 22.9736 12.8366 23.1188C12.9403 23.2225 12.9921 23.3469 12.9921 23.4818C12.9921 23.6269 12.9403 23.7514 12.8366 23.8551C12.7432 23.9484 12.6084 24.0003 12.4736 24.0003Z" fill="#4027FF"/>
<path d="M14.1232 23.0459C13.9469 23.0459 13.781 22.9629 13.6877 22.8074C13.5321 22.5688 13.6047 22.2473 13.8432 22.0918C14.0818 21.9362 14.4032 22.0088 14.5588 22.2473C14.7144 22.4859 14.6418 22.8074 14.3929 22.9629C14.3099 23.0148 14.2062 23.0459 14.1129 23.0459H14.1232ZM15.7825 22.0918C15.6062 22.0918 15.4299 22.0088 15.3366 21.8429C15.1914 21.594 15.264 21.2829 15.5129 21.1377C15.7618 20.9821 16.0729 21.0651 16.2285 21.314C16.384 21.5629 16.301 21.874 16.0522 22.0296C15.9692 22.0814 15.8759 22.1022 15.7825 22.1022V22.0918ZM17.4418 21.1377C17.2551 21.1377 17.0685 21.034 16.9855 20.8577C16.8507 20.6088 16.944 20.2977 17.2033 20.1629C17.4522 20.0281 17.7737 20.1214 17.9085 20.3807C18.0433 20.6295 17.9396 20.951 17.6907 21.0755C17.6077 21.117 17.5248 21.1377 17.4418 21.1377ZM19.1011 20.1732C18.9248 20.1732 18.7589 20.0903 18.6655 19.9347C18.51 19.6962 18.5826 19.3747 18.8211 19.2192C19.07 19.0636 19.3811 19.1362 19.5366 19.3747C19.6922 19.6132 19.6196 19.9347 19.3707 20.0903C19.2878 20.1421 19.1841 20.1732 19.0907 20.1732H19.1011ZM20.7604 19.2192C20.5841 19.2192 20.4181 19.1362 20.3248 18.9806C20.1693 18.7421 20.2418 18.4206 20.4804 18.2651C20.7189 18.1095 21.0404 18.1821 21.1959 18.4206C21.3515 18.6591 21.2789 18.9806 21.03 19.1362C20.947 19.188 20.8433 19.2192 20.75 19.2192H20.7604Z" fill="#4027FF"/>
<path d="M22.4189 6.77464C22.2841 6.77464 22.1493 6.72278 22.0559 6.61908C22.0041 6.5776 21.9626 6.51537 21.9419 6.45315C21.9108 6.39093 21.9004 6.3287 21.9004 6.25611C21.9004 6.12129 21.9522 5.98648 22.0559 5.89314C22.253 5.6961 22.5952 5.6961 22.7923 5.89314C22.8856 5.98648 22.9374 6.12129 22.9374 6.25611C22.9374 6.31833 22.9374 6.39093 22.896 6.45315C22.8752 6.51537 22.8337 6.5776 22.7923 6.61908C22.6885 6.72278 22.5537 6.77464 22.4189 6.77464Z" fill="#4027FF"/>
<path d="M14.1329 11.5654C13.9463 11.5654 13.77 11.4617 13.6766 11.2854C13.5418 11.0365 13.6455 10.715 13.8944 10.5906C14.1433 10.4558 14.4648 10.5491 14.5996 10.8084C14.7344 11.0573 14.6411 11.3684 14.3818 11.5032C14.3092 11.5447 14.2263 11.5654 14.1433 11.5654H14.1329ZM15.7819 10.601C15.5952 10.601 15.4189 10.4972 15.3256 10.3209C15.1907 10.0721 15.2944 9.75057 15.5433 9.62612C15.8026 9.4913 16.1137 9.58464 16.2485 9.8439C16.3834 10.0928 16.29 10.4039 16.0308 10.5387C15.9582 10.5802 15.8752 10.601 15.7922 10.601H15.7819ZM17.4411 9.64686C17.2648 9.64686 17.0989 9.5639 17.0056 9.40834C16.85 9.16982 16.9226 8.84833 17.1715 8.69277C17.41 8.53721 17.7419 8.60981 17.8871 8.84833C18.0426 9.08685 17.97 9.40834 17.7315 9.5639C17.6486 9.62612 17.5448 9.64686 17.4515 9.64686H17.4411ZM19.1004 8.69277C18.9241 8.69277 18.7582 8.60981 18.6649 8.45425C18.5093 8.21573 18.5819 7.89424 18.8308 7.73868C19.0693 7.58313 19.4012 7.65572 19.5464 7.89424C19.7019 8.13276 19.6293 8.45425 19.3908 8.60981C19.3078 8.67203 19.2041 8.69277 19.1108 8.69277H19.1004ZM20.7597 7.73868C20.5834 7.73868 20.4175 7.65572 20.3242 7.50016C20.1686 7.26164 20.2412 6.94015 20.4901 6.78459C20.7286 6.62904 21.0605 6.70163 21.2056 6.94015C21.3612 7.17867 21.2886 7.50016 21.0501 7.65572C20.9671 7.71794 20.8634 7.73868 20.7701 7.73868H20.7597Z" fill="#4027FF"/>
<path d="M12.4736 12.5199C12.401 12.5199 12.3388 12.5199 12.2766 12.4785C12.2143 12.4577 12.1521 12.4162 12.1003 12.3644C12.0069 12.271 11.9551 12.1362 11.9551 12.0014C11.9551 11.8666 12.0069 11.7318 12.1003 11.6281C12.1521 11.5866 12.2143 11.5451 12.2766 11.514C12.4632 11.4414 12.6914 11.4829 12.8366 11.6281C12.9299 11.7318 12.9921 11.8666 12.9921 12.0014C12.9921 12.1362 12.9299 12.271 12.8366 12.3644C12.7432 12.4681 12.6084 12.5199 12.4736 12.5199Z" fill="#4027FF"/>
<path d="M10.8144 11.5655C10.7211 11.5655 10.6277 11.5448 10.5448 11.4826C10.3062 11.327 10.2337 11.0055 10.3788 10.7566C10.5344 10.5181 10.8559 10.4455 11.0944 10.5907C11.3329 10.7463 11.4159 11.0677 11.2603 11.3063C11.1566 11.4618 10.9907 11.5552 10.8248 11.5552L10.8144 11.5655ZM9.15512 10.6114C9.06178 10.6114 8.96845 10.5907 8.88548 10.5285C8.64696 10.3729 8.57437 10.0514 8.71955 9.80253C8.87511 9.56401 9.1966 9.49142 9.43512 9.6366C9.67364 9.79216 9.75661 10.1136 9.60105 10.3522C9.49734 10.5077 9.33142 10.6011 9.16549 10.6011L9.15512 10.6114ZM7.5062 9.64698C7.41287 9.64698 7.31953 9.62623 7.23657 9.56401C6.99805 9.40845 6.92545 9.08697 7.07064 8.83807C7.2262 8.59955 7.54768 8.52696 7.78621 8.67215C8.02473 8.8277 8.10769 9.14919 7.95214 9.38771C7.84843 9.54327 7.6825 9.6366 7.51657 9.6366L7.5062 9.64698ZM5.84692 8.69289C5.76395 8.69289 5.68099 8.67215 5.6084 8.63066C5.3595 8.49585 5.2558 8.17436 5.39061 7.92547C5.52543 7.6662 5.83655 7.57287 6.09581 7.70769C6.3447 7.8425 6.44841 8.15362 6.31359 8.41288C6.22026 8.58918 6.04396 8.69289 5.85729 8.69289H5.84692ZM4.18763 7.7388C4.10467 7.7388 4.0217 7.71806 3.94911 7.67657C3.70022 7.54176 3.59651 7.22027 3.73133 6.97138C3.86615 6.71212 4.17726 6.61878 4.43653 6.7536C4.68542 6.88841 4.78912 7.19953 4.65431 7.45879C4.56097 7.63509 4.38467 7.7388 4.198 7.7388H4.18763Z" fill="#4027FF"/>
<path d="M2.5289 6.77442C2.4563 6.77442 2.38371 6.77442 2.32149 6.73294C2.25926 6.7122 2.20741 6.67072 2.15556 6.61887C2.10371 6.57738 2.07259 6.51516 2.04148 6.45294C2.02074 6.39071 2 6.31812 2 6.2559C2 6.12108 2.06222 5.98626 2.15556 5.89293C2.20741 5.84108 2.25926 5.79959 2.32149 5.77885C2.51853 5.69589 2.74668 5.74774 2.89187 5.89293C2.9852 5.98626 3.04742 6.12108 3.04742 6.2559C3.04742 6.32849 3.02668 6.39071 3.00594 6.45294C2.97483 6.51516 2.94372 6.57738 2.89187 6.61887C2.78816 6.72257 2.66371 6.77442 2.5289 6.77442Z" fill="#4027FF"/>
<path d="M12.4736 24.0003C12.401 24.0003 12.3388 23.9899 12.2766 23.9692C12.2143 23.9381 12.1521 23.907 12.1106 23.8551C12.0069 23.7514 11.9551 23.6269 11.9551 23.4818C11.9551 23.3469 12.0069 23.2225 12.1106 23.1188C12.1521 23.0773 12.2143 23.0358 12.2766 23.0047C12.4632 22.9321 12.6914 22.9736 12.8366 23.1188C12.9403 23.2225 12.9921 23.3469 12.9921 23.4818C12.9921 23.6269 12.9403 23.7514 12.8366 23.8551C12.7432 23.9484 12.6084 24.0003 12.4736 24.0003Z" fill="#4027FF"/>
<path d="M12.4736 22.092C12.1832 22.092 11.9551 21.8638 11.9551 21.5838C11.9551 21.2831 12.1832 21.0549 12.4736 21.0549C12.764 21.0549 12.9921 21.2831 12.9921 21.5735C12.9921 21.8638 12.764 22.092 12.4736 22.092ZM12.4736 20.1838C12.1832 20.1838 11.9551 19.9557 11.9551 19.6757C11.9551 19.3749 12.1832 19.1468 12.4736 19.1468C12.764 19.1468 12.9921 19.3749 12.9921 19.6653C12.9921 19.9557 12.764 20.1838 12.4736 20.1838ZM12.4736 18.2653C12.1832 18.2653 11.9551 18.0371 11.9551 17.7467C11.9551 17.446 12.1832 17.2178 12.4736 17.2178C12.764 17.2178 12.9921 17.446 12.9921 17.7364C12.9921 18.0267 12.764 18.2653 12.4736 18.2653ZM12.4736 16.3571C12.1832 16.3571 11.9551 16.1289 11.9551 15.8386C11.9551 15.5378 12.1832 15.3097 12.4736 15.3097C12.764 15.3097 12.9921 15.5378 12.9921 15.8282C12.9921 16.1186 12.764 16.3571 12.4736 16.3571ZM12.4736 14.4385C12.1832 14.4385 11.9551 14.2104 11.9551 13.92C11.9551 13.6193 12.1832 13.3911 12.4736 13.3911C12.764 13.3911 12.9921 13.6193 12.9921 13.9096C12.9921 14.2 12.764 14.4385 12.4736 14.4385Z" fill="#4027FF"/>
<path d="M12.4736 12.5199C12.401 12.5199 12.3388 12.5199 12.2766 12.4785C12.2143 12.4577 12.1521 12.4162 12.1003 12.3644C12.0069 12.271 11.9551 12.1362 11.9551 12.0014C11.9551 11.8666 12.0069 11.7318 12.1003 11.6281C12.1521 11.5866 12.2143 11.5451 12.2766 11.514C12.4632 11.4414 12.6914 11.4829 12.8366 11.6281C12.9299 11.7318 12.9921 11.8666 12.9921 12.0014C12.9921 12.1362 12.9299 12.271 12.8366 12.3644C12.7432 12.4681 12.6084 12.5199 12.4736 12.5199Z" fill="#4027FF"/>
<path d="M6.69821 15.8488C6.55303 15.8488 6.42858 15.7865 6.32487 15.6932C6.23154 15.5999 6.17969 15.4651 6.17969 15.3302C6.17969 15.2576 6.19006 15.1954 6.22117 15.1332C6.24191 15.0606 6.28339 15.0087 6.32487 14.9569C6.53229 14.7702 6.86414 14.7702 7.06118 14.9569C7.11304 15.0087 7.14415 15.0606 7.17526 15.1332C7.196 15.1954 7.21674 15.2576 7.21674 15.3302C7.21674 15.4651 7.15452 15.5999 7.06118 15.6932C6.96785 15.7865 6.83303 15.8488 6.69821 15.8488Z" fill="#4027FF"/>
<path d="M3.91768 17.4563C3.74138 17.4563 3.57546 17.3733 3.48212 17.2074C3.32656 16.9689 3.39916 16.6474 3.64805 16.4918C3.88657 16.3363 4.21843 16.4089 4.36362 16.6578C4.51917 16.8963 4.44658 17.2178 4.20806 17.3733C4.12509 17.4356 4.03176 17.4563 3.93842 17.4563H3.91768ZM5.30733 16.6578C5.13104 16.6578 4.96511 16.5748 4.87177 16.4089C4.71621 16.1703 4.78881 15.8489 5.0377 15.6933C5.28659 15.5377 5.60808 15.6103 5.75327 15.8592C5.90883 16.0978 5.83623 16.4192 5.59771 16.5748C5.51475 16.637 5.42141 16.6578 5.32808 16.6578H5.30733Z" fill="#4027FF"/>
<path d="M2.5289 18.265C2.4563 18.265 2.38371 18.2443 2.32149 18.2235C2.25926 18.1924 2.20741 18.1613 2.15556 18.1095C2.06222 18.0161 2 17.8813 2 17.7465C2 17.6739 2.02074 17.6013 2.04148 17.5391C2.07259 17.4769 2.10371 17.425 2.15556 17.3732C2.3526 17.1865 2.69483 17.1761 2.89187 17.3732C2.94372 17.425 2.97483 17.4769 3.00594 17.5391C3.02668 17.6013 3.04742 17.6739 3.04742 17.7465C3.04742 17.8813 2.9852 18.0161 2.89187 18.1095C2.78816 18.2028 2.66371 18.265 2.5289 18.265Z" fill="#4027FF"/>
<path d="M12.4736 1.02928C12.3388 1.02928 12.204 0.977423 12.1003 0.884088C12.0069 0.780383 11.9551 0.645566 11.9551 0.510749C11.9551 0.448526 11.9551 0.375932 11.9966 0.313709C12.0173 0.251485 12.0588 0.189262 12.1003 0.14778C12.2973 -0.04926 12.6499 -0.04926 12.8366 0.14778C12.8884 0.189262 12.9195 0.251485 12.9506 0.313709C12.9714 0.375932 12.9921 0.438155 12.9921 0.510749C12.9921 0.583342 12.9714 0.645566 12.9506 0.707789C12.9195 0.770012 12.8884 0.832235 12.8366 0.884088C12.7951 0.92557 12.7329 0.967052 12.6706 0.987793C12.6084 1.0189 12.5358 1.02928 12.4736 1.02928Z" fill="#4027FF"/>
<path d="M12.4736 4.46193C12.1832 4.46193 11.9551 4.23378 11.9551 3.9434C11.9551 3.65303 12.1832 3.42488 12.4736 3.42488C12.764 3.42488 12.9921 3.65303 12.9921 3.9434C12.9921 4.24415 12.764 4.4723 12.4736 4.4723V4.46193ZM12.4736 2.74042C12.1832 2.74042 11.9551 2.51227 11.9551 2.2219C11.9551 1.93152 12.1832 1.70337 12.4736 1.70337C12.764 1.70337 12.9921 1.93152 12.9921 2.2219C12.9921 2.52264 12.764 2.75079 12.4736 2.75079V2.74042Z" fill="#4027FF"/>
<path d="M12.4736 6.17319C12.3388 6.17319 12.204 6.11097 12.1003 6.01763C12.0069 5.91393 11.9551 5.77911 11.9551 5.64429C11.9551 5.58207 11.9551 5.50948 11.9966 5.44725C12.0173 5.38503 12.0588 5.33318 12.1003 5.28132C12.2973 5.08428 12.6395 5.08428 12.8366 5.28132C12.8884 5.33318 12.9195 5.38503 12.9506 5.44725C12.9818 5.50948 12.9921 5.58207 12.9921 5.64429C12.9921 5.77911 12.9403 5.91393 12.8366 6.01763C12.7432 6.11097 12.6084 6.17319 12.4736 6.17319Z" fill="#4027FF"/>
<path d="M12.2134 19.1152L6.437 15.7759L6.17773 15.33V8.66175L6.95552 8.21582L12.7319 11.5551L12.9912 12.0011V18.6693L12.2134 19.1152ZM7.21479 15.0293L11.9541 17.7671V12.2914L7.21479 9.55362V15.0293Z" fill="#4027FF"/>
<path d="M15.0981 17.5081L12.2048 15.8384L12.7233 14.9465L14.8389 16.1599V10.6946L10.0996 7.95681V10.3317H9.0625V7.05458L9.84029 6.60864L15.6167 9.93758L15.8759 10.3939V17.0621L15.0981 17.5081Z" fill="#4027FF"/>
<path d="M12.9921 5.33301H11.9551V8.72417H12.9921V5.33301Z" fill="#4027FF"/>
<path d="M17.9907 15.7863L15.0973 14.1166L15.6159 13.2144L17.7315 14.4381V8.96245L12.9921 6.22463V8.72393H11.9551V5.33277L12.7329 4.87646L18.5093 8.21578L18.7685 8.66171V15.33L17.9907 15.7863Z" fill="#4027FF"/>
</svg>
