<?xml version="1.0" encoding="UTF-8" standalone="no"?>
<svg
   width="692"
   height="100"
   viewBox="0 0 692 100"
   fill="none"
   version="1.1"
   id="svg8"
   sodipodi:docname="lambda-docs-logo-dark-mode.svg"
   inkscape:version="1.3.2 (091e20e, 2023-11-25)"
   xmlns:inkscape="http://www.inkscape.org/namespaces/inkscape"
   xmlns:sodipodi="http://sodipodi.sourceforge.net/DTD/sodipodi-0.dtd"
   xmlns="http://www.w3.org/2000/svg"
   xmlns:svg="http://www.w3.org/2000/svg">
  <sodipodi:namedview
     id="namedview8"
     pagecolor="#000000"
     bordercolor="#000000"
     borderopacity="0.25"
     inkscape:showpageshadow="2"
     inkscape:pageopacity="0.0"
     inkscape:pagecheckerboard="0"
     inkscape:deskcolor="#d1d1d1"
     showgrid="false"
     inkscape:zoom="0.26"
     inkscape:cx="232.69231"
     inkscape:cy="51.923077"
     inkscape:window-width="1664"
     inkscape:window-height="896"
     inkscape:window-x="199"
     inkscape:window-y="72"
     inkscape:window-maximized="0"
     inkscape:current-layer="svg8" />
  <g
     clip-path="url(#clip0_84_17946)"
     id="g8">
    <path
       d="m 222.101,54.6664 c 0,-11.3261 -5.199,-20.767 -21.338,-20.767 -8.8,0 -15.431,2.3678 -18.791,4.2379 l 4.807,8.5661 c 3.134,-1.4628 7.324,-2.5487 11.317,-2.5487 7.414,0 8.8,3.6346 8.8,6.1984 v 2.9258 c -15.657,0 -28.39,3.6647 -28.39,16.1671 0,7.6764 5.832,14.7646 15.642,14.7646 5.741,0 10.684,-2.0661 13.848,-5.8968 h 0.302 l 0.889,4.8261 h 12.914 V 54.6814 Z m -14.692,7.4501 v 3.4838 c 0,0.8898 -0.106,1.7645 -0.302,2.5487 -0.979,3.0465 -4.053,5.5198 -7.821,5.5198 -3.36,0 -6.901,-1.0557 -6.931,-4.9014 0.045,-6.1079 6.72,-6.666 15.039,-6.666 z"
       fill="#ffffff"
       id="path1" />
    <path
       d="m 358.073,58.1809 c 0.106,-14.7495 -8.258,-24.296 -19.65,-24.296 -6.616,0 -11.573,2.6543 -14.406,6.7866 h -0.196 V 14.9277 h -14.768 v 68.1374 h 12.146 l 0.587,-6.6961 h 0.196 c 3.406,5.7007 8.755,7.7668 14.301,7.7668 10.895,0 21.79,-8.6566 21.79,-25.97 z m -25.286,14.1463 c -4.28,0 -7.685,-3.0465 -8.665,-7.0732 -0.196,-0.7842 -0.286,-1.674 -0.286,-2.6543 v -7.0731 c 0,-0.9803 0.09,-1.8701 0.286,-2.7599 0.98,-4.3283 4.672,-7.3747 8.665,-7.3747 6.902,0 10.217,5.8967 10.217,13.3771 0,8.6566 -3.888,13.5732 -10.217,13.5732 z"
       fill="#ffffff"
       id="path2" />
    <path
       d="m 463,54.6664 c 0,-11.3261 -5.214,-20.767 -21.338,-20.767 -8.801,0 -15.431,2.3678 -18.792,4.2379 l 4.807,8.5661 c 3.135,-1.4628 7.324,-2.5487 11.317,-2.5487 7.415,0 8.801,3.6346 8.801,6.1984 v 2.9258 c -15.657,0 -28.391,3.6647 -28.391,16.1671 0,7.6764 5.847,14.7646 15.642,14.7646 5.742,0 10.684,-2.0661 13.849,-5.8968 h 0.301 l 0.889,4.8261 H 463 V 54.6814 Z m -14.678,10.9339 c 0,0.8898 -0.105,1.7645 -0.301,2.5487 -0.995,3.0465 -4.054,5.5198 -7.821,5.5198 -3.361,0 -6.902,-1.0557 -6.917,-4.9014 0.03,-6.1079 6.721,-6.666 15.024,-6.666 v 3.4989 z"
       fill="#ffffff"
       id="path3" />
    <path
       d="m 398.367,14.9131 v 24.3865 h -0.196 c -2.17,-3.3481 -6.811,-5.4142 -12.719,-5.4142 -11.528,0 -21.684,9.3655 -21.594,25.608 0,14.9607 9.162,24.7032 20.6,24.7032 6.208,0 12.025,-2.7599 15.084,-8.1741 h 0.196 l 0.693,7.0882 h 12.9 V 14.9131 Z m -0.015,46.752 c 0,1.2819 -0.106,2.3678 -0.392,3.4536 -0.889,4.2379 -4.34,7.1787 -8.68,7.1787 -6.209,0 -10.247,-5.1125 -10.247,-13.2866 0,-7.5859 3.556,-13.6787 10.352,-13.6787 4.627,0 7.882,3.348 8.771,7.3898 0.105,0.7842 0.196,1.8701 0.196,2.6543 v 6.304 z"
       fill="#ffffff"
       id="path4" />
    <path
       d="m 285.211,33.8994 c -3.557,0 -6.51,0.7842 -9.162,2.3678 -2.276,1.3875 -4.431,3.348 -6.209,5.8063 h -0.196 c -2.064,-5.0221 -6.992,-8.1741 -13.201,-8.1741 -8.288,0 -12.522,4.5244 -14.587,7.5859 h -0.301 l -0.693,-6.5 h -12.221 v 48.1395 h 14.587 V 55.0736 c 0,-1.1764 0.105,-2.5488 0.587,-3.7402 0.89,-2.4583 3.15,-5.4142 6.993,-5.4142 4.731,0 6.901,4.1323 6.901,10.2402 v 26.9805 h 14.587 V 54.9831 c 0,-1.1764 0.196,-2.7599 0.588,-3.8307 0.98,-2.8503 3.451,-5.2181 6.902,-5.2181 4.822,0 7.097,4.0418 7.097,11.0244 v 26.1812 h 14.588 V 54.787 c 0,-14.3725 -6.993,-20.8725 -16.26,-20.8725 z"
       fill="#ffffff"
       id="path5" />
    <path
       d="m 146.664,70.5017 h 26.417 v 12.608 H 131.58 V 16.752 h 15.084 z"
       fill="#ffffff"
       id="path6" />
    <path
       d="m 25.96,17.4202 17.4,30.49 -19.36,35.31 12.46,-0.01 12.9,-24.09 13.74,24.1 h 12.7 l -37.14,-65.81 z"
       fill="#ffffff"
       id="path7" />
    <path
       d="M 0,0 V 100 H 100 V 0 Z M 91.17,91.1964 H 8.83 V 8.80357 h 82.34 z"
       fill="#ffffff"
       id="path8" />
  </g>
  <defs
     id="defs8">
    <clipPath
       id="clip0_84_17946">
      <rect
         width="463"
         height="100"
         fill="#ffffff"
         id="rect8"
         x="0"
         y="0" />
    </clipPath>
  </defs>
  <text
     xml:space="preserve"
     style="font-style:normal;font-variant:normal;font-weight:normal;font-stretch:normal;font-size:100px;font-family:'Camphor Pro';-inkscape-font-specification:'Camphor Pro';letter-spacing:-2px;fill:#000000"
     x="482.50574"
     y="82.758614"
     id="text1"><tspan
       sodipodi:role="line"
       id="tspan1"
       x="482.50574"
       y="82.758614"
       style="font-style:normal;font-variant:normal;font-weight:normal;font-stretch:normal;font-size:100px;font-family:'Camphor Pro';-inkscape-font-specification:'Camphor Pro';letter-spacing:-2px;fill:#b5acff;fill-opacity:1"
       dx="0">D<tspan
   style="font-style:normal;font-variant:normal;font-weight:normal;font-stretch:normal;font-size:100px;font-family:'Camphor Pro';-inkscape-font-specification:'Camphor Pro';letter-spacing:-1.5px"
   id="tspan2">ocs</tspan></tspan></text>
</svg>
