<svg width="166" height="22" viewBox="0 0 166 22" fill="none" xmlns="http://www.w3.org/2000/svg">
<path d="M48.8494 12.0217C48.8494 9.52957 47.7067 7.45459 44.1553 7.45459C42.2182 7.45459 40.7599 7.97696 40.0235 8.38688L41.0791 10.2696C41.7684 9.94674 42.6898 9.70732 43.5677 9.70732C45.1964 9.70732 45.5048 10.5054 45.5048 11.0713V11.7134C42.0622 11.7134 39.2617 12.5187 39.2617 15.2684C39.2617 16.9552 40.5459 18.5151 42.7007 18.5151C43.9631 18.5151 45.0513 18.0616 45.7478 17.2164H45.8131L46.009 18.2793H48.8494V12.0217ZM45.6172 13.6614V14.4268C45.6172 14.6227 45.5955 14.815 45.5519 14.9891C45.3379 15.6602 44.6596 16.2043 43.8325 16.2043C43.0924 16.2043 42.3161 15.9722 42.3089 15.1269C42.3198 13.7847 43.7853 13.6614 45.6172 13.6614Z" fill="black"/>
<path d="M78.7522 12.7949C78.7739 9.55188 76.9347 7.45151 74.4317 7.45151C72.977 7.45151 71.8851 8.03555 71.2648 8.94245H71.2213V3.27979H67.9746V18.2653H70.6445L70.7751 16.7925H70.8186C71.5659 18.0477 72.7449 18.5011 73.9637 18.5011C76.3616 18.5011 78.7558 16.5966 78.7558 12.7877L78.7522 12.7949ZM73.1911 15.9074C72.2515 15.9074 71.5006 15.2363 71.2866 14.3512C71.2431 14.1771 71.2249 13.9848 71.2249 13.7671V12.2109C71.2249 11.9969 71.2431 11.801 71.2866 11.6051C71.5006 10.6547 72.3132 9.98356 73.1911 9.98356C74.7074 9.98356 75.4365 11.2822 75.4365 12.9255C75.4365 14.83 74.5804 15.911 73.1911 15.911V15.9074Z" fill="black"/>
<path d="M101.83 12.0217C101.83 9.52957 100.684 7.45459 97.1358 7.45459C95.1987 7.45459 93.7404 7.97696 93.004 8.38688L94.0596 10.2696C94.7489 9.94674 95.6703 9.70732 96.5481 9.70732C98.1805 9.70732 98.4853 10.5054 98.4853 11.0713V11.7134C95.0427 11.7134 92.2422 12.5187 92.2422 15.2684C92.2422 16.9552 93.5264 18.5151 95.6811 18.5151C96.9435 18.5151 98.0318 18.0616 98.7283 17.2164H98.7936L98.9895 18.2793H101.83V12.0217ZM98.6013 14.4268C98.6013 14.6227 98.5796 14.815 98.536 14.9891C98.3184 15.6602 97.6437 16.2043 96.8166 16.2043C96.0765 16.2043 95.3002 15.9722 95.2966 15.1269C95.3039 13.7847 96.773 13.6614 98.6013 13.6614V14.4304V14.4268Z" fill="black"/>
<path d="M87.6125 3.27979V8.64498H87.569C87.0901 7.90858 86.0708 7.45513 84.7721 7.45513C82.2364 7.45513 80.0018 9.5156 80.0236 13.0888C80.0236 16.379 82.0369 18.5229 84.5544 18.5229C85.9184 18.5229 87.199 17.9171 87.8737 16.7236H87.9172L88.0696 18.2835H90.9063V3.27979H87.6161H87.6125ZM87.6089 13.564C87.6089 13.8469 87.5871 14.0864 87.5218 14.3222C87.3259 15.2544 86.5678 15.9002 85.6137 15.9002C84.2497 15.9002 83.361 14.7756 83.361 12.9763C83.361 11.3076 84.1445 9.96905 85.6391 9.96905C86.6584 9.96905 87.3731 10.7055 87.569 11.5942C87.5907 11.7683 87.6125 12.0041 87.6125 12.1782V13.564H87.6089Z" fill="black"/>
<path d="M62.7283 7.45459C61.9448 7.45459 61.2954 7.62871 60.715 7.97696C60.2144 8.28168 59.7392 8.71336 59.351 9.25387H59.3075C58.8541 8.15109 57.7694 7.45459 56.4055 7.45459C54.5844 7.45459 53.6521 8.44855 53.1987 9.12328H53.1334L52.981 7.69401H50.293V18.2829H53.4998V12.1124C53.4998 11.8548 53.5215 11.5501 53.6303 11.2889C53.8262 10.7484 54.3232 10.0991 55.1684 10.0991C56.2096 10.0991 56.6848 11.0096 56.6848 12.3518V18.2866H59.8916V12.0943C59.8916 11.8367 59.9351 11.4885 60.0222 11.2527C60.2362 10.6251 60.7803 10.1064 61.5385 10.1064C62.5977 10.1064 63.0983 10.9951 63.0983 12.5296V18.2866H66.3051V12.0507C66.3051 8.89111 64.767 7.46185 62.7283 7.46185V7.45459Z" fill="black"/>
<path d="M32.2567 15.5047H38.0681V18.2798H28.9375V3.68604H32.2567V15.5047Z" fill="black"/>
<path d="M5.70903 3.83105L9.53613 10.5385L5.27734 18.3015H8.01617L10.8566 13.0016L13.8783 18.3015H16.6716L8.50227 3.83105H5.70903Z" fill="black"/>
<path d="M0 0V21.994H21.994V0H0ZM20.0497 20.0569H1.94076V1.93713H20.0497V20.0569Z" fill="black"/>
<path d="M114 0H113V22H114V0Z" fill="black"/>
<path d="M123.803 4.15723H128.37C129.404 4.15723 130.361 4.33861 131.239 4.69774C132.117 5.0605 132.868 5.5611 133.492 6.20681C134.116 6.85252 134.602 7.62157 134.958 8.51396C135.313 9.40634 135.487 10.3894 135.487 11.4668C135.487 12.5442 135.309 13.5273 134.958 14.4197C134.602 15.312 134.116 16.0811 133.492 16.7268C132.868 17.3725 132.117 17.8731 131.239 18.2359C130.361 18.5986 129.404 18.7764 128.37 18.7764H123.803V4.15723ZM125.504 17.3725H128.254C129.063 17.3725 129.803 17.2274 130.47 16.9372C131.138 16.647 131.711 16.2407 132.186 15.7147C132.661 15.1923 133.035 14.5684 133.303 13.8465C133.572 13.1246 133.71 12.3302 133.71 11.4668C133.71 10.6034 133.575 9.809 133.303 9.08711C133.035 8.36522 132.661 7.74128 132.186 7.21891C131.711 6.69654 131.138 6.28662 130.47 5.99641C129.803 5.70621 129.063 5.5611 128.254 5.5611H125.504V17.3761V17.3725Z" fill="#4027FF"/>
<path d="M136.869 13.4651C136.869 12.6453 136.992 11.8944 137.243 11.2124C137.489 10.5304 137.841 9.94635 138.295 9.46025C138.748 8.97053 139.289 8.58963 139.92 8.31394C140.551 8.03824 141.24 7.90039 141.991 7.90039C142.742 7.90039 143.428 8.03824 144.052 8.31394C144.676 8.58963 145.213 8.97416 145.666 9.46025C146.119 9.94998 146.475 10.534 146.729 11.2124C146.983 11.8907 147.11 12.6416 147.11 13.4651C147.11 14.2886 146.983 15.0358 146.729 15.7178C146.475 16.3998 146.119 16.9839 145.666 17.47C145.213 17.9597 144.676 18.3406 144.052 18.6163C143.428 18.892 142.742 19.0298 141.991 19.0298C141.24 19.0298 140.551 18.892 139.92 18.6163C139.289 18.3406 138.748 17.9561 138.295 17.47C137.841 16.9802 137.489 16.3962 137.243 15.7178C136.996 15.0395 136.869 14.2886 136.869 13.4651ZM138.57 13.4651C138.57 14.0745 138.654 14.6332 138.828 15.1447C138.999 15.6562 139.234 16.0951 139.532 16.4615C139.829 16.8315 140.188 17.1181 140.609 17.3212C141.03 17.528 141.487 17.6296 141.984 17.6296C142.481 17.6296 142.934 17.528 143.348 17.3212C143.762 17.1145 144.113 16.8279 144.415 16.4615C144.712 16.0951 144.948 15.6525 145.118 15.1447C145.289 14.6332 145.376 14.0745 145.376 13.4651C145.376 12.8557 145.289 12.297 145.118 11.7855C144.948 11.274 144.712 10.8351 144.415 10.4687C144.117 10.0987 143.762 9.81213 143.348 9.60898C142.934 9.40221 142.481 9.30064 141.984 9.30064C141.487 9.30064 141.03 9.40221 140.609 9.60898C140.188 9.81575 139.829 10.1023 139.532 10.4687C139.234 10.8387 138.999 11.2777 138.828 11.7855C138.658 12.297 138.57 12.8557 138.57 13.4651Z" fill="#4027FF"/>
<path d="M148.32 13.4651C148.32 12.6453 148.447 11.8944 148.698 11.2124C148.948 10.5304 149.303 9.94635 149.76 9.46025C150.218 8.97053 150.765 8.58963 151.4 8.31394C152.035 8.03824 152.739 7.90039 153.504 7.90039C154.552 7.90039 155.557 8.14707 156.522 8.64405V10.2148C156.069 9.90282 155.604 9.67428 155.129 9.52555C154.654 9.37682 154.19 9.30064 153.736 9.30064C153.199 9.30064 152.699 9.40221 152.238 9.60898C151.777 9.81575 151.386 10.1023 151.059 10.4687C150.733 10.8351 150.479 11.2777 150.294 11.7855C150.109 12.297 150.018 12.8557 150.018 13.4651C150.018 14.0745 150.109 14.6332 150.294 15.1447C150.479 15.6562 150.733 16.0951 151.059 16.4615C151.386 16.8315 151.777 17.1181 152.238 17.3212C152.699 17.528 153.196 17.6296 153.736 17.6296C154.19 17.6296 154.654 17.5534 155.129 17.4047C155.604 17.2559 156.069 17.0274 156.522 16.7154V18.2862C155.557 18.7831 154.552 19.0298 153.504 19.0298C152.739 19.0298 152.039 18.892 151.4 18.6163C150.762 18.3406 150.214 17.9561 149.76 17.47C149.303 16.9802 148.952 16.3926 148.698 15.707C148.444 15.0213 148.32 14.2741 148.32 13.4651Z" fill="#4027FF"/>
<path d="M158.099 16.6722C159.089 17.3397 160.08 17.6698 161.074 17.6698C161.712 17.6698 162.242 17.5102 162.666 17.191C163.091 16.8718 163.305 16.451 163.305 15.925C163.305 15.515 163.17 15.1922 162.902 14.9564C162.634 14.7242 162.3 14.5247 161.904 14.3615C161.509 14.1982 161.077 14.0422 160.609 13.8935C160.141 13.7448 159.71 13.5525 159.314 13.3204C158.919 13.0882 158.585 12.7871 158.317 12.4171C158.048 12.0471 157.914 11.561 157.914 10.9515C157.914 10.4981 158.005 10.0845 158.19 9.70728C158.375 9.33364 158.629 9.01078 158.955 8.73871C159.282 8.47027 159.673 8.25987 160.127 8.11114C160.58 7.96241 161.077 7.88623 161.618 7.88623C162.568 7.88623 163.519 8.093 164.473 8.50292V10.0737C163.58 9.52227 162.677 9.24657 161.756 9.24657C161.117 9.24657 160.602 9.39893 160.207 9.70365C159.811 10.0084 159.612 10.4074 159.612 10.9044C159.612 11.2998 159.746 11.6118 160.014 11.8403C160.283 12.0652 160.617 12.2575 161.012 12.4135C161.407 12.5694 161.839 12.7218 162.307 12.8705C162.775 13.0193 163.207 13.2115 163.602 13.4437C163.998 13.6759 164.331 13.9842 164.6 14.3687C164.868 14.7496 165.002 15.2539 165.002 15.8778C165.002 16.3458 164.908 16.7702 164.727 17.1511C164.542 17.532 164.28 17.8621 163.939 18.1378C163.598 18.4135 163.192 18.6311 162.724 18.7871C162.256 18.9431 161.745 19.0193 161.19 19.0193C160.167 19.0193 159.137 18.7726 158.099 18.2756V16.6614V16.6722Z" fill="#4027FF"/>
</svg>
